<?xml version="1.0" standalone="no"?>
<!DOCTYPE svg PUBLIC "-//W3C//DTD SVG 20010904//EN"
 "http://www.w3.org/TR/2001/REC-SVG-20010904/DTD/svg10.dtd">
<svg version="1.0" xmlns="http://www.w3.org/2000/svg"
 width="462.000000pt" height="462.000000pt" viewBox="0 0 462.000000 462.000000"
 preserveAspectRatio="xMidYMid meet">

<g transform="translate(0.000000,462.000000) scale(0.100000,-0.100000)"
fill="#000000" stroke="none">
<path d="M2240 3646 c0 -25 -2 -26 -58 -26 -65 0 -136 -11 -262 -41 -382 -90
-732 -388 -893 -759 -65 -149 -85 -220 -106 -361 -14 -99 -21 -125 -34 -127
-31 -6 -17 -23 16 -20 32 3 32 3 39 71 35 317 188 624 415 837 146 136 333
250 508 309 86 28 254 61 315 61 28 0 60 5 71 10 23 13 25 43 4 60 -13 11 -15
8 -15 -14z"/>
<path d="M2360 3605 c8 -10 30 -15 61 -15 112 0 359 -69 499 -140 34 -17 59
-27 56 -22 -10 17 -211 110 -281 130 -108 31 -260 62 -306 62 -36 0 -40 -2
-29 -15z"/>
<path d="M1990 3461 c-12 -23 -5 -47 16 -55 9 -3 14 1 14 13 0 10 7 24 15 31
8 7 12 16 9 21 -9 16 -43 9 -54 -10z"/>
<path d="M2350 3454 c-350 -50 -669 -292 -843 -639 -114 -228 -149 -430 -112
-660 27 -168 48 -218 206 -505 9 -16 19 -27 22 -24 3 3 -9 29 -27 57 -126 197
-186 397 -186 619 0 362 230 763 555 967 165 104 313 150 539 170 60 5 113 14
119 20 16 16 -154 12 -273 -5z"/>
<path d="M1885 3389 c-10 -15 3 -25 16 -12 7 7 7 13 1 17 -6 3 -14 1 -17 -5z"/>
<path d="M1830 3375 c0 -8 5 -15 10 -15 6 0 10 7 10 15 0 8 -4 15 -10 15 -5 0
-10 -7 -10 -15z"/>
<path d="M2833 3368 c-6 -7 -26 -62 -46 -123 -92 -288 -134 -385 -164 -385 -8
0 -11 -4 -8 -10 9 -14 51 -12 62 3 5 6 37 88 71 180 105 286 118 325 106 337
-8 8 -14 7 -21 -2z"/>
<path d="M3050 3377 c0 -3 12 -12 26 -22 15 -9 23 -12 20 -6 -7 11 -46 35 -46
28z"/>
<path d="M2285 3324 c-236 -135 -388 -291 -501 -515 -81 -163 -120 -298 -103
-362 7 -24 4 -27 -29 -33 -100 -18 -152 -84 -101 -130 21 -19 22 -19 15 3 -10
31 28 70 89 91 l50 18 6 74 c8 93 46 209 106 320 120 224 256 363 496 505 54
32 100 62 103 67 15 24 -61 2 -131 -38z"/>
<path d="M2691 3278 c-43 -195 -71 -323 -71 -330 0 -5 4 -8 10 -8 11 0 38 90
75 253 19 82 34 124 48 138 23 22 22 25 -15 34 -26 7 -26 6 -47 -87z"/>
<path d="M1637 3325 c-32 -30 -37 -83 -9 -108 16 -15 17 -13 14 27 -3 36 0 46
19 60 13 9 39 16 59 16 33 1 34 2 16 15 -29 22 -68 18 -99 -10z"/>
<path d="M2579 3333 c0 -5 -6 -95 -12 -202 -9 -152 -9 -197 0 -210 10 -13 12
-6 13 39 0 33 4 50 9 42 4 -7 6 10 4 40 -2 29 0 103 4 165 5 62 7 117 5 122
-4 12 -22 15 -23 4z"/>
<path d="M2470 3145 l0 -155 -36 0 c-24 0 -34 -4 -31 -12 2 -8 21 -13 48 -13
l44 0 3 145 c3 149 -1 190 -18 190 -6 0 -10 -60 -10 -155z"/>
<path d="M1711 3248 c-20 -15 -22 -21 -11 -28 14 -9 50 4 50 18 -1 25 -17 29
-39 10z"/>
<path d="M2889 3188 c-34 -67 -87 -183 -136 -295 -3 -7 1 -13 8 -13 8 0 52 77
99 170 47 93 90 172 97 175 19 7 16 23 -7 35 -18 9 -24 3 -61 -72z"/>
<path d="M3027 3263 c-3 -5 -24 -44 -47 -88 -23 -44 -64 -119 -92 -167 -27
-48 -48 -92 -46 -99 9 -28 208 298 208 341 0 20 -14 27 -23 13z"/>
<path d="M3054 3078 c-205 -264 -227 -285 -280 -275 -32 6 -21 -9 15 -21 26
-9 35 -7 71 19 37 27 218 237 276 321 23 33 25 58 5 58 -4 0 -43 -46 -87 -102z"/>
<path d="M1490 3120 c0 -5 5 -10 10 -10 6 0 10 5 10 10 0 6 -4 10 -10 10 -5 0
-10 -4 -10 -10z"/>
<path d="M3450 3086 c0 -2 8 -10 18 -17 15 -13 16 -12 3 4 -13 16 -21 21 -21
13z"/>
<path d="M1546 3063 c-11 -11 -6 -23 9 -23 8 0 15 4 15 9 0 13 -16 22 -24 14z"/>
<path d="M3489 3035 c5 -11 17 -29 26 -40 l16 -20 -10 20 c-5 11 -17 29 -26
40 l-16 20 10 -20z"/>
<path d="M3053 2901 c-98 -100 -130 -140 -124 -150 7 -11 16 -7 43 20 18 19
84 83 146 142 62 60 110 113 107 118 -15 23 -49 -3 -172 -130z"/>
<path d="M1303 2994 c-33 -16 -63 -66 -63 -104 0 -27 29 -90 41 -90 6 0 5 8
-1 19 -47 88 63 196 153 150 l22 -11 -21 22 c-28 29 -89 35 -131 14z"/>
<path d="M3218 2918 c-87 -85 -242 -220 -259 -226 -16 -6 -9 -32 9 -32 18 0
175 131 285 238 59 59 84 102 58 102 -4 0 -46 -37 -93 -82z"/>
<path d="M3566 2893 c65 -140 122 -341 140 -495 6 -56 6 -57 -20 -64 -18 -4
-24 -10 -18 -16 15 -15 54 -5 62 17 9 26 -21 204 -55 320 -24 82 -127 315
-139 315 -3 0 11 -35 30 -77z"/>
<path d="M2480 2903 c0 -22 -4 -24 -52 -27 -10 -1 -19 -5 -20 -11 -4 -15 71
-18 88 -4 18 14 18 20 -1 45 -14 19 -14 18 -15 -3z"/>
<path d="M2121 2896 c-8 -10 -9 -16 -1 -21 13 -8 30 3 30 21 0 18 -14 18 -29
0z"/>
<path d="M3417 2816 c-4 -9 -14 -16 -24 -16 -9 0 -90 -37 -180 -82 -120 -60
-163 -87 -163 -100 0 -19 20 -24 36 -9 5 5 87 48 182 95 94 48 172 90 172 94
0 4 -4 13 -9 20 -7 11 -9 11 -14 -2z"/>
<path d="M3430 2717 c-14 -6 -79 -36 -145 -67 -66 -31 -135 -62 -152 -68 -80
-29 -93 -35 -93 -42 0 -21 38 -15 122 19 167 69 308 141 308 156 0 17 -6 18
-40 2z"/>
<path d="M2417 2693 c-38 -10 -2 -23 66 -23 84 0 199 -23 234 -46 14 -8 27
-14 29 -11 2 2 -22 18 -53 35 -80 42 -207 63 -276 45z"/>
<path d="M1115 2670 c3 -5 8 -10 11 -10 2 0 4 5 4 10 0 6 -5 10 -11 10 -5 0
-7 -4 -4 -10z"/>
<path d="M1180 2665 c0 -9 5 -15 11 -13 6 2 11 8 11 13 0 5 -5 11 -11 13 -6 2
-11 -4 -11 -13z"/>
<path d="M1286 2651 c-4 -7 -5 -15 -2 -18 9 -9 19 4 14 18 -4 11 -6 11 -12 0z"/>
<path d="M3499 2601 c-2 -6 -42 -22 -89 -35 -47 -13 -132 -38 -188 -56 -103
-33 -104 -33 -98 -62 5 -23 2 -28 -14 -28 -26 0 -26 -17 0 -25 25 -8 41 1 33
21 -7 18 24 54 46 54 9 1 83 20 166 44 147 43 182 63 158 87 -8 8 -12 8 -14 0z"/>
<path d="M2940 2545 c0 -3 7 -16 15 -28 22 -34 45 -145 45 -221 0 -77 -23
-171 -55 -228 -24 -41 -121 -148 -136 -148 -5 0 -9 -3 -9 -7 0 -5 -12 -17 -27
-27 -26 -19 -26 -19 -41 0 -13 17 -14 18 -8 1 7 -22 -13 -45 -37 -41 -9 1 -15
-2 -11 -7 3 -5 -1 -9 -8 -10 -7 0 -22 -2 -33 -4 -10 -2 -25 1 -32 7 -10 8 -13
6 -13 -6 0 -10 -9 -16 -22 -17 -29 0 -149 -6 -168 -8 -12 -1 -11 -4 3 -18 15
-15 36 -18 126 -18 l108 0 96 47 c77 39 107 61 157 115 95 102 159 259 131
319 -7 15 -7 33 -1 48 12 32 -11 139 -44 205 -24 45 -36 62 -36 46z"/>
<path d="M2430 2479 c-30 -5 -70 -12 -89 -15 -25 -4 -31 -8 -22 -17 8 -8 40
-8 124 2 136 17 133 16 182 8 l40 -7 -35 20 c-38 21 -106 24 -200 9z"/>
<path d="M3530 2471 c0 -17 -6 -21 -32 -21 -18 0 -94 -9 -168 -20 -74 -11
-138 -20 -142 -20 -5 0 -8 -5 -8 -11 0 -13 101 -8 245 12 126 17 125 17 125
44 0 13 -4 27 -10 30 -5 3 -10 -3 -10 -14z"/>
<path d="M2210 2456 c0 -2 13 -28 28 -57 16 -30 33 -69 40 -86 6 -18 15 -33
21 -33 11 0 -19 72 -56 138 -22 37 -33 50 -33 38z"/>
<path d="M1155 2439 c-35 -11 -68 -36 -84 -66 -17 -34 -14 -117 7 -142 17 -21
17 -20 17 44 0 64 1 68 38 102 36 33 42 35 98 31 59 -3 60 -3 38 15 -11 9 -29
17 -39 17 -10 0 -24 2 -32 4 -7 2 -26 0 -43 -5z"/>
<path d="M2796 2409 c27 -106 -3 -212 -79 -273 -37 -29 -43 -31 -155 -36 -157
-7 -146 -25 15 -25 119 0 122 1 164 30 81 57 116 168 84 269 -20 63 -43 90
-29 35z"/>
<path d="M2062 2414 c-28 -19 -28 -45 -1 -75 11 -13 19 -17 16 -9 -2 8 -1 25
4 38 6 16 16 22 41 22 l33 1 -24 19 c-28 24 -40 25 -69 4z"/>
<path d="M2630 2339 c0 -48 -30 -79 -78 -79 l-37 -1 28 -15 c74 -40 152 46
102 112 -13 18 -14 17 -15 -17z"/>
<path d="M3546 2315 c-5 -15 -36 -17 -61 -5 -5 3 -85 4 -177 2 -142 -2 -167
-5 -172 -19 -10 -24 10 -40 33 -26 16 10 290 19 366 11 26 -3 30 0 33 25 4 29
-12 37 -22 12z"/>
<path d="M2927 2313 c-10 -16 10 -35 34 -31 33 4 31 32 -3 36 -14 2 -28 -1
-31 -5z"/>
<path d="M1752 2275 c-8 -10 -32 -15 -65 -15 -48 -1 -50 -2 -33 -15 44 -33
145 -9 130 30 -8 19 -15 18 -32 0z"/>
<path d="M2155 2280 c-3 -5 1 -10 9 -10 9 0 16 5 16 10 0 6 -4 10 -9 10 -6 0
-13 -4 -16 -10z"/>
<path d="M3547 2226 c-4 -11 -45 -13 -224 -9 -182 4 -216 2 -205 -9 10 -10 66
-14 232 -16 l220 -3 0 25 c0 28 -14 35 -23 12z"/>
<path d="M910 2218 c0 -37 32 -203 51 -264 27 -88 109 -268 149 -328 39 -58
50 -60 15 -3 -83 134 -144 300 -170 462 -24 142 -24 145 -35 145 -6 0 -10 -6
-10 -12z"/>
<path d="M3705 2193 c-47 -291 -99 -438 -230 -637 -74 -113 -111 -152 -128
-137 -11 9 -17 8 -26 -3 -8 -10 -9 -16 -1 -21 6 -4 10 -3 9 2 -3 19 2 23 14
11 12 -10 12 -15 0 -26 -11 -11 -17 -11 -28 -2 -10 8 -15 9 -15 2 0 -6 4 -14
10 -17 6 -4 5 -11 -3 -20 -8 -9 -16 -10 -25 -2 -9 7 -16 7 -24 -1 -9 -9 -7
-12 8 -13 10 0 13 -3 6 -6 -6 -2 -10 -9 -6 -14 3 -5 1 -9 -4 -9 -4 0 -18 -9
-30 -20 -12 -11 -25 -20 -29 -19 -4 1 -15 1 -23 -1 -11 -1 -9 -4 5 -10 l20 -8
-20 -8 c-11 -4 -27 -17 -36 -28 -10 -12 -21 -16 -28 -11 -10 5 -6 14 13 32 14
13 26 28 26 33 0 6 -13 -4 -30 -22 -16 -17 -30 -35 -30 -40 0 -5 -4 -6 -10 -3
-5 3 -10 1 -10 -5 0 -6 -5 -8 -12 -4 -7 4 -8 3 -4 -4 5 -9 13 -9 26 -2 13 7
21 7 25 0 6 -10 4 -11 -37 -14 -13 -1 -22 -7 -21 -14 2 -7 -6 -12 -18 -12 -12
0 -23 -8 -26 -20 -3 -11 -10 -20 -15 -20 -5 0 -6 10 -3 21 5 16 3 20 -6 17 -8
-3 -13 -17 -12 -32 2 -24 0 -25 -20 -15 -12 7 -26 17 -30 23 -6 7 -7 4 -3 -6
12 -38 -15 -62 -38 -35 -6 7 -10 11 -9 8 1 -2 -8 -12 -20 -22 -12 -11 -17 -18
-12 -17 6 2 12 -1 15 -6 3 -5 -3 -10 -12 -12 -16 -2 -23 7 -19 29 2 13 -20 7
-25 -7 -4 -10 -18 -13 -47 -11 -40 4 -41 3 -22 -12 16 -13 17 -15 3 -10 -13 5
-18 1 -18 -12 0 -10 -7 -24 -15 -31 -12 -10 -15 -9 -15 4 0 10 5 14 10 11 6
-3 10 1 10 10 0 9 -4 13 -10 10 -5 -3 -10 -1 -10 4 0 6 -7 11 -15 11 -8 0 -15
-7 -15 -15 0 -8 -5 -15 -11 -15 -6 0 -8 -9 -4 -20 9 -29 -14 -25 -25 5 -5 14
-15 25 -22 25 -9 0 -8 -3 2 -10 13 -9 7 -14 -12 -11 -5 0 -8 -4 -8 -11 0 -6
-9 -3 -20 7 -20 18 -21 18 -34 -1 -8 -10 -29 -20 -48 -22 -18 -2 -41 -4 -50
-5 -10 -1 -18 -5 -18 -10 0 -5 9 -7 20 -4 11 3 23 1 26 -4 3 -5 -6 -9 -20 -9
-14 0 -28 5 -31 10 -3 6 -11 10 -16 10 -6 0 -8 -3 -6 -7 3 -5 -2 -15 -11 -23
-14 -13 -15 -12 -9 3 9 24 -2 47 -19 40 -20 -8 -17 -26 4 -19 15 5 15 5 1 -6
-14 -12 -14 -15 2 -32 16 -16 27 -17 101 -11 324 27 621 168 864 410 200 199
335 442 389 702 22 106 31 218 17 227 -7 4 -13 -8 -17 -31z m-895 -1177 c0 -2
-7 -6 -15 -10 -8 -3 -15 -1 -15 4 0 6 7 10 15 10 8 0 15 -2 15 -4z m-254 -83
c-10 -10 -19 5 -10 18 6 11 8 11 12 0 2 -7 1 -15 -2 -18z m-69 2 c0 -8 -4 -12
-9 -9 -4 3 -8 9 -8 15 0 5 4 9 8 9 5 0 9 -7 9 -15z m120 9 c-3 -3 -12 -4 -19
-1 -8 3 -5 6 6 6 11 1 17 -2 13 -5z"/>
<path d="M2062 2191 c-59 -15 -152 -121 -138 -158 5 -11 24 4 74 56 l68 72
166 -3 c123 -2 164 0 161 9 -3 6 -12 15 -21 18 -26 11 -272 15 -310 6z"/>
<path d="M1676 2181 c-11 -17 23 -154 60 -241 19 -47 38 -92 42 -100 14 -36
102 -178 118 -191 9 -7 -6 20 -33 62 -61 93 -130 266 -152 381 -17 88 -24 107
-35 89z"/>
<path d="M3122 2128 c-15 -15 -16 -48 0 -48 6 0 19 7 29 16 16 14 25 14 101
-1 46 -9 127 -28 180 -42 97 -25 118 -24 118 2 0 23 -21 28 -35 9 -12 -16 -17
-17 -35 -6 -11 7 -87 26 -169 42 -82 17 -155 32 -163 35 -7 3 -19 0 -26 -7z"/>
<path d="M2375 2071 c-9 -15 8 -35 24 -30 8 3 7 10 -2 23 -10 14 -16 16 -22 7z"/>
<path d="M3096 2052 c5 -5 41 -20 79 -35 39 -14 123 -47 188 -72 117 -46 147
-50 147 -21 0 23 -18 29 -28 10 -9 -16 -14 -15 -58 6 -44 20 -319 120 -333
120 -3 0 -1 -4 5 -8z"/>
<path d="M1216 2031 c-12 -5 -15 -10 -9 -14 6 -4 16 0 23 8 14 17 13 17 -14 6z"/>
<path d="M2099 2006 c11 -13 35 -16 140 -17 69 0 149 -4 176 -9 137 -25 195
-29 232 -17 40 13 56 43 28 53 -9 4 -25 -2 -36 -12 -17 -15 -36 -19 -88 -18
-36 1 -84 7 -106 14 -22 6 -112 14 -200 17 -147 5 -159 4 -146 -11z"/>
<path d="M1306 1991 c-4 -5 -2 -12 3 -15 5 -4 12 -2 15 3 4 5 2 12 -3 15 -5 4
-12 2 -15 -3z"/>
<path d="M1100 1981 c0 -6 4 -13 10 -16 6 -3 7 1 4 9 -7 18 -14 21 -14 7z"/>
<path d="M3052 1968 c-18 -18 -15 -36 8 -48 16 -9 20 -8 20 5 0 14 11 19 35
16 6 -1 -1 8 -15 19 -30 23 -32 24 -48 8z"/>
<path d="M1126 1942 c-3 -5 1 -9 9 -9 8 0 15 4 15 9 0 4 -4 8 -9 8 -6 0 -12
-4 -15 -8z"/>
<path d="M3131 1937 c15 -13 258 -133 253 -126 -6 10 -238 129 -251 129 -3 0
-4 -2 -2 -3z"/>
<path d="M1103 1912 c0 -12 5 -22 9 -22 11 0 10 12 -2 30 -7 12 -9 10 -7 -8z"/>
<path d="M1110 1873 c14 -7 13 -30 -2 -36 -10 -3 -10 -7 -1 -17 6 -7 16 -9 21
-6 13 8 0 59 -16 62 -7 1 -8 0 -2 -3z"/>
<path d="M1160 1870 c-13 -8 -12 -10 3 -10 9 0 17 5 17 10 0 12 -1 12 -20 0z"/>
<path d="M1314 1854 c-21 -8 -40 -14 -40 -14 -8 -1 -34 -74 -34 -94 0 -16 -6
-26 -15 -26 -9 0 -12 -6 -9 -15 4 -8 11 -12 16 -9 6 4 9 1 6 -6 -7 -21 -28
-24 -28 -3 0 15 -2 15 -10 3 -5 -8 -6 -17 -2 -20 4 -3 8 -14 10 -24 2 -10 10
-25 18 -33 8 -8 14 -17 14 -21 0 -4 16 -24 35 -45 19 -20 38 -44 42 -52 17
-30 146 -155 167 -161 11 -3 35 -19 51 -34 33 -30 160 -100 182 -100 8 0 32
-9 54 -21 23 -11 47 -18 54 -15 7 2 29 -6 48 -20 28 -19 49 -24 97 -24 34 0
71 -5 83 -12 105 -56 531 -67 643 -16 32 15 20 38 -14 29 -15 -4 -39 -7 -54
-6 -16 1 -28 -3 -28 -7 0 -4 -18 -8 -41 -8 -24 0 -38 4 -34 10 4 6 -6 10 -22
9 -15 0 -22 -3 -15 -6 20 -8 14 -22 -8 -16 -10 3 -22 14 -26 26 -6 18 -7 18
-16 4 -11 -21 -29 -22 -22 -2 4 8 2 15 -2 16 -5 0 -21 2 -36 4 -16 2 -28 -1
-28 -6 0 -5 -9 -1 -21 10 -12 11 -27 17 -34 15 -7 -3 -16 -1 -20 5 -3 6 -13
11 -21 11 -8 0 -12 -4 -9 -10 3 -6 -1 -7 -9 -4 -9 3 -14 10 -11 14 3 5 -5 12
-17 16 -14 4 -25 1 -33 -10 -15 -20 -21 -20 -28 -1 -4 8 -1 17 5 21 7 4 8 3 4
-4 -4 -7 -2 -12 4 -12 7 0 10 6 7 13 -2 6 -16 11 -31 10 -16 -1 -24 2 -20 9 4
7 -2 8 -17 3 -21 -7 -22 -6 -10 9 14 16 6 20 -36 19 -7 -1 -10 3 -7 8 2 5 -7
11 -22 15 -20 5 -31 2 -42 -12 -14 -18 -13 -13 2 27 5 10 -1 19 -18 27 -21 9
-25 8 -29 -6 -4 -15 -5 -14 -6 2 -1 16 -7 18 -36 13 -24 -4 -33 -2 -29 5 4 5
0 14 -7 19 -9 6 -4 7 16 3 l30 -7 -20 22 -20 23 -19 -24 -19 -23 5 22 c6 22 5
22 -18 5 -14 -10 -23 -25 -21 -37 1 -11 -2 -19 -8 -18 -5 0 -16 -5 -23 -13
-10 -11 -10 -14 0 -15 7 -1 2 -4 -12 -8 -24 -7 -95 1 -106 12 -3 3 -8 23 -11
44 -4 32 0 45 22 71 18 21 36 32 53 32 36 0 92 -35 92 -57 1 -17 1 -17 11 0 8
14 6 22 -11 37 -13 11 -19 24 -15 31 5 7 3 10 -6 7 -8 -3 -13 -11 -11 -17 1
-7 -8 -4 -22 6 -26 19 -33 33 -16 33 6 0 10 5 10 10 0 7 -6 7 -18 1 -13 -7
-23 -6 -32 2 -8 8 -11 8 -7 1 8 -14 -30 -26 -39 -13 -3 5 -10 6 -16 3 -7 -4
-8 -2 -4 4 4 7 3 12 -3 12 -5 0 -12 8 -14 18 -3 11 -5 9 -6 -8 -1 -19 -3 -22
-11 -10 -5 9 -5 19 2 27 14 17 -2 16 -26 -2 -25 -19 -41 -19 -24 -1 7 8 15 12
17 10 8 -7 31 26 31 44 0 24 -26 37 -34 17 -3 -9 0 -12 10 -8 8 3 14 -1 14
-11 0 -10 -6 -13 -15 -10 -8 4 -15 1 -15 -6 0 -6 -4 -9 -9 -5 -5 3 -17 -2 -26
-11 -13 -13 -16 -14 -15 -3 4 28 0 38 -15 33 -19 -8 -21 26 -2 46 10 12 9 12
-5 1 -14 -10 -18 -10 -18 -1 0 6 9 14 21 17 15 4 17 8 8 14 -19 12 -38 -21
-33 -59 3 -29 2 -31 -15 -23 -10 6 -21 7 -25 4 -3 -3 -6 -1 -6 6 0 7 6 11 13
8 8 -3 14 1 14 9 0 16 -13 19 -21 5 -3 -5 -16 -7 -28 -3 -14 3 -19 2 -14 -7 4
-6 12 -8 18 -5 6 4 6 -2 -1 -15 -7 -11 -14 -21 -17 -21 -3 0 -2 5 1 10 10 16
-19 38 -55 42 -26 3 -34 9 -37 29 -18 133 -15 146 40 179 36 22 78 25 110 9
l22 -11 -20 21 c-31 32 -75 41 -121 25z m-34 -212 c0 -15 -19 -36 -27 -29 -4
5 -1 12 7 17 11 7 11 10 3 11 -7 1 -17 3 -23 4 -5 1 -13 3 -17 4 -5 1 -1 5 6
10 15 10 51 -3 51 -17z m220 -126 c0 -3 -4 -8 -10 -11 -5 -3 -10 -1 -10 4 0 6
5 11 10 11 6 0 10 -2 10 -4z m109 -64 c8 -15 5 -18 -12 -19 -12 0 -16 1 -9 4
6 3 12 9 12 14 0 6 -5 7 -12 3 -7 -4 -8 -3 -4 4 10 16 14 15 25 -6z m241 -118
c0 -8 -19 -13 -24 -6 -3 5 1 9 9 9 8 0 15 -2 15 -3z m120 -28 c0 -2 -8 -10
-17 -17 -16 -13 -17 -12 -4 4 13 16 21 21 21 13z m106 -124 c-2 -15 -5 -30 -5
-34 -1 -11 -29 -10 -35 1 -9 14 5 41 21 41 10 0 13 6 9 16 -3 9 -2 12 4 9 6
-4 8 -19 6 -33z m44 4 c0 -3 -4 -8 -10 -11 -5 -3 -10 -1 -10 4 0 6 5 11 10 11
6 0 10 -2 10 -4z"/>
<path d="M3070 1856 c0 -2 8 -10 18 -17 15 -13 16 -12 3 4 -13 16 -21 21 -21
13z"/>
<path d="M3110 1857 c0 -2 24 -24 53 -48 28 -24 46 -36 38 -26 -28 36 34 12
117 -45 58 -40 53 -28 -7 15 -83 60 -201 121 -201 104z"/>
<path d="M2928 1826 c-22 -17 -22 -23 0 -35 12 -6 23 -5 36 5 16 11 17 16 6
29 -15 18 -20 18 -42 1z"/>
<path d="M3430 1802 c-8 -15 -13 -31 -11 -36 1 -4 -5 -13 -13 -20 -8 -6 -17
-21 -21 -33 -5 -19 -2 -23 15 -23 15 0 22 8 26 30 4 16 13 35 20 41 15 13 19
55 5 63 -4 3 -14 -7 -21 -22z"/>
<path d="M1163 1795 c0 -8 4 -12 9 -9 5 3 6 10 3 15 -9 13 -12 11 -12 -6z"/>
<path d="M1205 1790 c-10 -11 -14 -20 -9 -20 5 0 15 9 22 20 7 11 11 20 9 20
-2 0 -12 -9 -22 -20z"/>
<path d="M1178 1757 c12 -7 19 -16 16 -20 -4 -4 -2 -7 4 -7 19 0 14 18 -7 30
-11 5 -23 10 -28 10 -4 -1 2 -6 15 -13z"/>
<path d="M2795 1738 c4 -11 -1 -20 -17 -29 -13 -6 -25 -13 -27 -15 -2 -2 6
-23 17 -46 12 -24 42 -90 67 -147 34 -79 42 -107 33 -113 -10 -6 -9 -8 2 -8 8
0 28 -19 44 -41 23 -32 27 -47 23 -75 -4 -26 -2 -37 9 -41 16 -6 92 40 100 61
5 13 -60 156 -71 156 -2 0 9 -29 25 -64 l29 -65 -25 -16 c-14 -9 -31 -14 -37
-11 -7 2 -2 8 11 11 12 4 22 11 22 15 0 14 -27 19 -39 7 -16 -16 -30 6 -112
182 l-71 155 31 26 32 25 -26 25 c-17 16 -24 19 -20 8z"/>
<path d="M2106 1733 c-11 -11 -6 -23 9 -23 8 0 15 4 15 9 0 13 -16 22 -24 14z"/>
<path d="M1700 1714 c0 -8 5 -12 10 -9 6 3 10 10 10 16 0 5 -4 9 -10 9 -5 0
-10 -7 -10 -16z"/>
<path d="M1658 1703 c7 -3 16 -2 19 1 4 3 -2 6 -13 5 -11 0 -14 -3 -6 -6z"/>
<path d="M2663 1680 c3 -8 21 -51 40 -95 40 -94 85 -221 90 -252 2 -12 6 -26
10 -29 15 -15 6 -34 -15 -34 -21 -1 -21 -2 -5 -11 9 -5 22 -7 27 -4 6 3 10 -1
10 -9 0 -9 -6 -16 -12 -16 -9 0 -8 -4 2 -10 27 -17 33 -11 28 33 -6 49 -144
405 -166 427 -13 13 -14 13 -9 0z"/>
<path d="M1710 1676 c0 -9 30 -14 35 -6 4 6 -3 10 -14 10 -12 0 -21 -2 -21 -4z"/>
<path d="M2470 1652 c0 -35 -22 -47 -64 -36 -17 4 -26 2 -26 -6 0 -6 8 -14 18
-16 15 -4 17 -17 15 -91 -1 -52 -6 -89 -13 -93 -8 -5 -6 -9 6 -14 16 -6 16 -8
0 -25 -15 -16 -15 -19 1 -33 34 -30 64 -41 77 -28 16 16 15 362 -1 368 -9 2
-13 -7 -13 -26z m0 -162 c0 -82 -3 -100 -15 -100 -8 0 -15 3 -15 8 -5 111 -6
179 -3 185 2 4 11 7 19 7 11 0 14 -20 14 -100z m0 -114 c0 -3 -4 -8 -10 -11
-5 -3 -10 -1 -10 4 0 6 5 11 10 11 6 0 10 -2 10 -4z"/>
<path d="M1715 1650 c-3 -5 -3 -10 2 -10 4 0 1 -5 -7 -10 -13 -8 -12 -10 3
-10 10 0 17 8 17 20 0 22 -5 26 -15 10z"/>
<path d="M2620 1634 c0 -3 18 -80 40 -171 23 -90 38 -169 34 -175 -4 -6 -3 -8
3 -5 6 4 13 -2 16 -13 3 -12 -1 -24 -11 -29 -16 -9 -15 -10 1 -17 41 -15 41
11 2 148 -21 73 -41 162 -44 198 -5 51 -10 65 -23 68 -10 2 -18 0 -18 -4z"/>
<path d="M1530 1610 c0 -5 -7 -7 -15 -4 -9 4 -15 0 -15 -8 0 -7 9 -14 20 -14
13 0 20 7 20 18 0 10 -2 18 -5 18 -3 0 -5 -4 -5 -10z"/>
<path d="M1734 1609 c-3 -6 -1 -16 4 -21 8 -8 11 -5 9 11 -1 24 -3 25 -13 10z"/>
<path d="M1763 1577 c1 -12 11 -30 21 -39 22 -21 29 -23 21 -5 -3 6 0 3 7 -8
30 -47 133 -134 214 -183 154 -91 374 -165 441 -147 l28 8 -35 8 c-19 5 -44
11 -55 13 -39 10 -61 14 -108 20 -27 4 -46 10 -43 13 8 8 -13 33 -28 33 -6 0
-4 -4 4 -10 8 -5 11 -12 7 -16 -8 -8 -32 12 -32 27 0 5 -4 9 -8 8 -5 0 -15 8
-23 18 -11 13 -14 14 -12 3 3 -15 -3 -20 -23 -20 -5 0 -7 4 -4 10 3 6 -1 7 -9
4 -16 -6 -20 4 -17 36 1 10 -1 11 -6 4 -4 -6 -16 -13 -25 -17 -14 -5 -18 -1
-18 17 0 20 -5 24 -25 21 -31 -3 -41 10 -24 33 10 13 10 15 0 6 -9 -9 -24 -7
-59 6 -62 24 -75 45 -43 71 17 14 19 19 8 19 -9 0 -19 -5 -23 -12 -5 -8 -10
-6 -16 8 -6 14 -7 12 -3 -8 3 -16 1 -28 -5 -28 -9 0 -15 30 -11 54 1 5 -5 6
-13 3 -9 -4 -15 -1 -13 6 1 7 -11 13 -26 15 -23 3 -28 8 -24 22 3 10 -1 21 -9
24 -9 4 -13 -2 -11 -17z m227 -181 c0 -3 -4 -8 -10 -11 -5 -3 -10 -1 -10 4 0
6 5 11 10 11 6 0 10 -2 10 -4z"/>
<path d="M2565 1433 c7 -171 9 -188 25 -178 19 12 -2 335 -21 335 -6 0 -7 -58
-4 -157z"/>
<path d="M1631 1568 c-1 -21 -17 -24 -24 -5 -4 8 -6 7 -6 -3 0 -8 7 -24 16
-35 12 -16 14 -16 10 -3 -3 10 -2 20 3 23 6 4 10 1 10 -6 0 -7 2 -10 5 -7 3 3
1 16 -4 29 -7 17 -10 19 -10 7z"/>
<path d="M1810 1566 c7 -7 13 -7 20 0 6 6 3 10 -10 10 -13 0 -16 -4 -10 -10z"/>
<path d="M3274 1555 c-12 -19 -20 -23 -34 -15 -23 13 -33 1 -14 -17 13 -14 13
-18 -3 -35 -14 -16 -15 -21 -4 -28 8 -4 20 -6 26 -3 23 8 75 91 69 107 -9 23
-21 20 -40 -9z"/>
<path d="M1680 1556 c0 -2 8 -10 18 -17 15 -13 16 -12 3 4 -13 16 -21 21 -21
13z"/>
<path d="M1662 1528 c2 -6 10 -13 16 -14 7 -1 8 0 2 3 -5 2 -8 9 -4 14 3 5 0
9 -6 9 -7 0 -10 -5 -8 -12z"/>
<path d="M3050 1510 c0 -5 5 -10 11 -10 5 0 7 5 4 10 -3 6 -8 10 -11 10 -2 0
-4 -4 -4 -10z"/>
<path d="M1646 1495 c4 -8 8 -15 10 -15 2 0 4 7 4 15 0 8 -4 15 -10 15 -5 0
-7 -7 -4 -15z"/>
<path d="M2937 1481 c3 -11 11 -22 19 -25 11 -4 11 0 -2 19 -20 30 -24 31 -17
6z"/>
<path d="M1946 1468 c-8 -12 -12 -26 -9 -32 4 -6 8 -4 11 4 3 8 9 23 14 33 12
24 2 21 -16 -5z"/>
<path d="M3074 1469 c0 -12 5 -18 13 -15 7 3 13 2 13 -3 0 -14 -26 -31 -35
-23 -5 4 -5 1 -1 -6 6 -9 11 -10 20 -3 19 16 51 -20 34 -37 -16 -16 2 -34 22
-22 13 8 12 16 -9 54 -13 25 -31 52 -40 60 -15 14 -17 13 -17 -5z"/>
<path d="M2060 1426 c0 -2 7 -7 16 -10 8 -3 12 -2 9 4 -6 10 -25 14 -25 6z"/>
<path d="M2388 1383 c7 -3 16 -2 19 1 4 3 -2 6 -13 5 -11 0 -14 -3 -6 -6z"/>
<path d="M2075 1371 c-3 -5 -1 -12 5 -16 5 -3 10 1 10 9 0 18 -6 21 -15 7z"/>
<path d="M1260 1354 c0 -8 5 -12 10 -9 6 4 8 11 5 16 -9 14 -15 11 -15 -7z"/>
<path d="M2130 1340 c0 -5 5 -10 11 -10 5 0 7 5 4 10 -3 6 -8 10 -11 10 -2 0
-4 -4 -4 -10z"/>
<path d="M2235 1310 c-3 -5 -1 -10 4 -10 6 0 11 5 11 10 0 6 -2 10 -4 10 -3 0
-8 -4 -11 -10z"/>
<path d="M3230 1304 c0 -8 5 -12 10 -9 6 3 10 10 10 16 0 5 -4 9 -10 9 -5 0
-10 -7 -10 -16z"/>
<path d="M1320 1300 c0 -5 7 -10 16 -10 8 0 12 -5 8 -11 -4 -8 0 -8 15 0 11 7
21 14 21 17 0 3 -4 2 -10 -1 -5 -3 -19 -1 -30 5 -13 7 -20 7 -20 0z"/>
<path d="M3201 1294 c0 -11 3 -14 6 -6 3 7 2 16 -1 19 -3 4 -6 -2 -5 -13z"/>
<path d="M2305 1260 c-8 -13 5 -13 25 0 13 8 13 10 -2 10 -9 0 -20 -4 -23 -10z"/>
<path d="M1380 1237 c0 -12 -4 -16 -12 -11 -10 6 -9 3 0 -8 21 -26 199 -142
277 -181 195 -97 578 -189 606 -146 15 24 10 39 -18 51 -39 16 -53 18 -53 7 0
-5 9 -9 20 -9 11 0 20 -4 20 -9 0 -6 -14 -5 -35 0 -19 6 -40 7 -45 4 -6 -3
-10 -1 -10 5 0 6 -4 9 -9 5 -5 -3 -12 3 -14 12 -3 11 -5 8 -6 -9 0 -16 -5 -28
-9 -28 -5 0 -7 15 -5 33 4 29 3 30 -10 15 -8 -10 -20 -18 -27 -18 -10 0 -9 4
1 17 12 15 12 16 -3 10 -11 -4 -18 -2 -18 6 0 7 -4 6 -10 -3 -8 -13 -11 -13
-27 2 -16 17 -18 16 -29 -10 -12 -26 -12 -26 -13 -4 -1 13 -5 20 -11 17 -5 -3
-10 1 -10 9 0 9 -4 16 -10 16 -5 0 -10 -7 -10 -16 0 -8 -5 -12 -11 -9 -6 4 -8
13 -5 21 5 13 1 15 -36 18 -7 1 -12 -5 -10 -12 1 -6 -3 -12 -9 -12 -6 0 -9 7
-6 15 4 8 2 17 -3 20 -6 4 -10 -3 -10 -14 0 -18 -2 -19 -31 -4 -26 13 -33 13
-41 2 -8 -11 -9 -10 -5 3 3 9 -2 22 -10 30 -14 11 -16 11 -11 -3 4 -10 1 -16
-8 -16 -16 0 -9 37 9 49 6 4 -4 6 -22 6 -18 -1 -36 4 -40 10 -5 9 -13 7 -27
-6 -24 -23 -40 -18 -59 19 -16 30 -39 41 -28 13 5 -14 2 -14 -27 1 -18 9 -44
27 -57 39 -21 19 -26 31 -32 65 -1 3 -8 -4 -16 -15 -14 -19 -14 -19 -15 2 0
11 4 24 10 30 6 6 3 10 -10 10 -13 0 -20 -7 -20 -19z m310 -171 c0 -8 -4 -18
-10 -21 -5 -3 -10 3 -10 14 0 12 5 21 10 21 6 0 10 -6 10 -14z m182 -71 c3
-14 1 -25 -3 -25 -5 0 -9 11 -9 25 0 14 2 25 4 25 2 0 6 -11 8 -25z m118 -35
c0 -5 -2 -10 -4 -10 -3 0 -8 5 -11 10 -3 6 -1 10 4 10 6 0 11 -4 11 -10z"/>
<path d="M1460 1196 c0 -8 14 -26 32 -41 28 -24 33 -25 46 -11 9 9 12 19 8 23
-5 5 -11 2 -13 -4 -3 -7 -9 -13 -14 -13 -6 0 -7 5 -4 10 4 6 1 9 -6 8 -7 -2
-15 6 -18 17 -7 23 -31 32 -31 11z"/>
<path d="M2556 1125 c-3 -9 0 -15 8 -15 7 0 13 7 13 15 0 8 -4 15 -8 15 -4 0
-9 -7 -13 -15z"/>
<path d="M1607 1123 c-4 -3 -7 -11 -7 -17 0 -6 5 -5 12 2 6 6 9 14 7 17 -3 3
-9 2 -12 -2z"/>
<path d="M1761 1044 c14 -18 52 -18 47 -1 -3 6 -17 12 -31 13 -22 1 -25 -2
-16 -12z"/>
</g>
</svg>
