<svg xmlns="http://www.w3.org/2000/svg" width="462" height="462"><path d="m231 91 3-1c24-2 49 7 70 19l2 1c21 12 38 28 50 49l2 3c12 18 20 43 20 64v4l-1 5 1 2c2 25-8 50-20 71l-2 3-14 19-3 3-8 8a186 186 0 0 0-5 4c-22 20-52 31-81 34h-3l-2 1h-3l-5-1-2-2-3 2c-28 4-63-12-85-28-30-24-50-52-58-89l-1-3-1-20-1-9 1-12v-3c3-14 7-28 13-41l1-3c7-14 16-26 27-37l3-3 11-10h2v-2l11-7 5-3a117 117 0 0 1 31-13c13-4 32-9 45-5zm43 24v4h10l-10-4zm-12 7 3 2v-2h-3zm29 0v3h5l-5-3zm20 13v3l3-1-3-2zm-107 24a95 95 0 0 0-29 61v2l1 5 5 3c2 2 1 3 1 5v5l-5 3-2 1c0 26 17 51 35 69 8 7 17 12 26 17l-1-40h2l-1-3v-15l9-2v-1l-13-1h-10l-6-1h-4c-3 0-5-1-7-3v-9l-2 2-3 3-2 3-6 2-3-1c-4-12-4-27 1-39a24 24 0 0 1 18-14l2-1h13v-6l34-3v-1h-14l-2-1c-3 0-3-1-5-3l-1-8v-7l2-1-1-1v-12l-1-10v-21c-10 0-24 16-31 23zm117-15v5l4-2-4-3zm17 21-8 9 1 2c3 0 3 0 5-2h8c-1-4-3-6-6-9zm-204 6c-2 2-2 2-2 6l3 5c4 0 5 0 8-2 2-3 3-4 2-8l-3-3c-4-1-5 0-8 2zm219 22-1 3h2l-1-3zm4 13 1 3zm2 16v3l2-1-2-2zm-127 1 3 9h9l3-10-15 1zm-116 5c-2 2-2 2-2 6 0 3 0 4 2 7 3 2 5 2 9 1 3-2 5-3 6-6l-2-8c-4-4-8-3-13 0zm243 19-5 1 6 3-1-4zm-76 2 1 2zm-1 2-7 6 1 4 7-8-1-2zm73 13 2 3v-3h-2zm-4 13 1 3 1-3h-2zm-218 8c-2 3-2 6-1 10l4 3 8-2c2-3 1-6 1-9l-3-3c-3 0-6-1-9 1zm121 6 2 3v-3h-2zm84 12v3zm-19 18 1 5 4-4-5-1zm-149 2c-2 3-2 3-2 7l6 1 1-3c0-3 0-3-2-5h-3zm140 9 1 3 2-3h-3zm-47 8-3 2v3h8l-5-5zm26 3-2 2-5 1 1 5 12-5-6-3zm-120 4c3 3 5 3 9 4-3-3-5-3-9-4zm9 4c2 2 3 2 7 3l2 1h2c-3-3-6-4-11-4zm11 4c3 3 5 3 9 4h2a251 251 0 0 0 31 6v-2l-14-3-4-1h-3l-9-3-7-1h-5z" fill="#090909"/><path d="M268 113v2h-14l-17 3h-7c-20 2-41 15-54 29l-5 5c-5 4-8 8-11 13l-2 2c-17 25-23 55-18 85l4 9a163 163 0 0 1 2 6l1 2-1 7c-5 0-9 0-14-2v2l-3-1h2v-2l-2 1-6-2-2-3 1-2c3 1 3 1 5 4v-2h3v-3l3-1v-3h-3v2l-3 1-1-2h2l-1-4-1 2h-3v-2l-1-3-2-1v-3l-5 3-1-10h9v2h-5v2h2l4-1v-3l5-1-1-2 1-3c3-5 3-9 2-14l-6-6c-5 0-9-1-14 1l-4 5v15h-7c-1-20 0-42 11-59l1-3 7-12a150 150 0 0 0 4-6c3-6 8-11 13-16l4-3 9-7a145 145 0 0 0 5-4c14-11 32-19 50-21h2c19-2 44-4 62 4zm-134 58c-2 2-2 2-2 6l3 5c4 0 5 0 8-2 2-3 3-4 2-8l-3-3c-4-1-5 0-8 2z" fill="#f4f5db"/><path d="m250 120-2 1c-29 11-57 31-69 60l-2 4-2 4-1 3-2 4c-2 6-3 10-3 17v7l-2 1c-7 1-7 1-13 6l-1 6 2 1 6 3 6 3v2c4 23 14 45 29 62l1 2c9 9 18 16 28 22l7 5 12 4 7 2v2c-6 0-12 0-18-2h-2c-8-2-15-4-22-8v-2h-2l-9-4-4-2-2-2v-2l-3-1v-3h-3v-4l-2 1h-2l-4-4v-2l-4-1v-2l-3-1v-3l-3-1v-2h-2l-1-4h-2l-4-8-4-6c-3-6-6-11-7-18l-2-9c-5-14-3-33 1-48l1-2c6-23 22-45 41-59l2-2c13-10 43-25 59-20z" fill="#ebe8cb"/><path d="M243 202h4c12 0 19 2 28 10 5 5 6 10 6 18s-2 12-8 18c-4 4-8 4-13 4h-20v-3c-1-4-1-4-3-5-4-2-9-1-14-1h-14c-5 0-9 4-13 8l-1 2-4 6-3-1c-2-5-1-11-1-16v-3c0-8 1-14 6-21 5-4 9-7 15-8l3-1 12 1v-6c7-2 13-2 20-2zm-11 21 3 9h9l3-10-15 1z" fill="#f2f3de"/><path d="M102 203h1v6l-1 4-1 6v20a28 28 0 0 0 4 1l1-1v-7c0-7 0-7 2-10l3-2 3-2c4-1 9-1 13 1 3 2 5 4 5 8 0 6-1 10-3 16l3 2-7 1-1 5-3-2h-3v-2h5v-2h-9v2l2 1v2h-2l2 4 5-3 1 2h-2l1 2 2-1 1 6 5-1-2 5h3v-2h3l3 4h-6v3h-3v2l-3-1-1-2 1 4h3l5 2c5 1 11 2 16 0l3 5 2 3 6 11c2 5 6 9 10 13l4 7h2l2 1 1 3 4 2v2l2 1 5 2v2h2l9 6 7 3 3 1 17 6 4 2 14 2h33l-1 2-5 1-4 2c-7 2-13 3-20 3l-7 1v-2h-5l-2-6h-3l1 2c-7-1-7-1-9-3l-1-1-3 2-1-3-3 1-3-1-2 1c-4-1-5-4-7-8l-3 1v-3l-3 4-1-1-3 3-1-6-2 3-1-2-4-3-2-1h-5l-1 2h-11v-1h3l4-1 1-2h2c0-7 0-7-2-13-4-1-6-2-10-1l-5 8-4-1 1-4-1-2 1-1-8 1v-7l4 1h-2v2l3-3-9-2 4-2-1-1-1-1-1 2h-8l1-2h-2v-2l-7-1v-2h4l3-1 4-1 6-1v-9c0-3 0-5-2-7l-2-1v-2c-5 0-9 0-14 2-4 4-4 10-4 15-4 0-4 0-6-2l-2-4-3-1-2-8h-2l-1-2-1-3-1-3-2-5c-8-20-7-43-2-63zm14 25c-2 2-2 2-2 6 0 3 0 4 2 7 3 2 5 2 9 1 3-2 5-3 6-6l-2-8c-4-4-8-3-13 0z" fill="#aca996"/><path d="M235 181h1v12h5c16-1 27 0 39 11 8 9 9 16 9 27h10l-1 3h-9v4l-4 11h-2l-1 2-3 4c-3 2-3 2-4 6s-2 5-6 7l-2 1c-8 5-17 3-26 3v-2l-9-1h-20c-4-1-5-2-8-5v-8l-1 2c-5 7-5 7-9 8-3 0-3 0-5-2-3-3-3-6-3-10l-1-2 1-16h1v9l1 2v5l1 6h2l2-3c3-6 7-11 13-13h26c3 0 5 1 8 3v7h16c9-1 15-2 21-8 4-6 4-14 3-21-2-8-6-12-13-17-4-2-9-3-13-3h-3l-6-1v-1l-4-1c-3-1-4-1-6-4v-15z" fill="#090908"/><path d="m250 120-2 1c-29 11-57 31-69 60l-2 4-2 4-1 3-2 4c-2 6-3 10-3 17v7l-2 1c-5 1-9 2-13 6l-4 1 1 1-1 10-2 1-3-1c-1-32-1-32 5-45l1-2 7-14 2-3c7-13 17-24 29-33l2-2c13-10 43-25 59-20z" fill="#f5f6de"/><path d="M224 91v9h-3c-14 1-14 1-26 4l-7 2-18 6-2 1-2 1-6 2v2l-2 1c-24 10-45 37-55 61l-2 5-2 4-1 4-1 2c-3 8-4 16-5 25v3l-1 6h-8l3-21v-7c2-25 20-49 37-67l3-3 11-10h2v-2l11-7 5-3a117 117 0 0 1 31-13c12-4 25-5 38-5z" fill="#e2e3d0"/><path d="M237 182h15c14-1 25 6 36 15 10 12 13 25 12 40 0 10-4 18-11 26l-3 1-1 2-2 4h-2l-1 4h-3v2h-3l-1 3c-11 6-25 4-37 4v-8l1-4h2c18 1 18 1 33-6 9-9 14-19 17-31h4l3-1h2l1-2h-10v-3c-1-10-3-17-10-24-10-8-20-11-33-12h-9v-10z" fill="#eceddb"/><path d="M365 236h6c-1 19-4 37-13 54l-2 3-4 8-1 3-2 2-2 3-1 2h-2l-1 2-4 6-2 2-1 2h-2l-1 2c-3 7-9 11-15 15l-4 3c-6 6-13 10-21 14l-7 3-11 4-4 2-5 1c-3 0-3 0-5 2l-6 1-4 1h-5l-4 1-10 1v-9h2l24-4h3a100 100 0 0 0 20-7l4-1v-2l9-3 2-1h2v-2l5-4 3-2 5-2 1-3h4l1-2 2-4h2l1-2 5-6 10-11 5-8 5-10 6-10c4-9 5-19 7-29l1-6v-5c1-4 1-4 4-4z" fill="#858075"/><path d="M232 91c15 1 28 3 41 8l5 2c10 3 20 8 28 14l2 1 14 11 2 2c10 8 17 17 24 27l2 4c3 3 5 6 6 10l4 10 7 20 1 4c2 8 3 16 3 25h-9v-2c-1-7-1-14-3-20l-1-7c-1-9-5-16-9-23l-1-4c-2-5-5-8-8-12l-4-6c-2-5-7-9-10-12l-6-7c-7-8-18-14-27-19l-3-2c-18-10-38-14-58-15v-9z" fill="#e7e8d9"/><path d="M268 113v2h-14l-17 3h-7c-18 1-36 13-49 24l-2 2-5 4-2-1v-3h-3c-4 0-4 0-6-3s-2-6-2-10l1-2-4-2c13-9 30-16 46-18h2c19-2 44-4 62 4z" fill="#eceedb"/><path d="M243 202h4c12 0 19 2 28 10 5 5 6 10 6 17 0 9-2 13-8 19-4 4-8 4-13 4h-20v-7h3l1-5h-2v-5l4 4v2c6 2 13 2 18-1 4-2 6-4 6-9s0-10-4-14c-9-5-19-3-28-1h-10c-3-5-3-8-3-13l18-1z" fill="#d4d3c3"/><path d="m150 295 2 1-1 2 6 3 2 1 2 5h2l-1-3v-6c11 12 11 12 11 15h2l2 1 1 3 4 2v2l2 1 5 2v2h2l9 6 7 3 3 1 17 6 4 2 14 2h33l-1 2-5 1-4 2c-7 2-13 3-20 3l-7 1v-2h-5l-2-6h-3l1 2c-7-1-7-1-9-3l-1-1-3 2-1-3-3 1-3-1-2 1c-4-1-5-4-7-8l-3 1v-3l-3 4-1-1-3 3-1-6-2 3-1-2-4-3-2-1h-5l-1 2h-11v-1h3l4-1 1-2h2c0-7 0-7-2-13-4-1-6-2-10-1l-5 8-4-1 1-4-1-2 1-1-8 1v-7l4 1h-2v2l3-3-9-2 4-2-1-1-1-1-1 2h-8l1-2h-2v-2l-7-1v-2h2c4-1 9-1 13-3v3l1-1 5-3z" fill="#737365"/><path d="m159 128 3 1v2l1 10c2 2 3 2 6 2h4l-1 4h2v2l-3 3c-4 3-7 6-9 11-4 4-6 7-11 9h-2l-1 3-1-2v-2l-1-3-4-5-11-1h-7v2l-2 1-3 8-1 2-3 1-1 3h-2l5-10 6-9c3-6 8-11 13-16l4-3 9-8 5-3c2-2 2-2 5-2z" fill="#f3f5dd"/><path d="M223 204h2l3 12h2c28-5 28-5 35 0 4 2 6 5 6 10 1 5 1 8-3 12-3 3-5 5-9 5-10 0-10 0-13-2l-1-3-6-4a164 164 0 0 0-11 0l-1-2c-2-7-5-13-9-20l-17 1c4-4 11-4 16-4l6 1v-6zm9 19 3 9h9l3-10-15 1z" fill="#0a0a0a"/><path d="M167 314c6 1 6 1 9 4l1 10-2 2-2-6h-3l-2 6 6 1-1 3h4l1-3 7-1 2 4 1-3 2 6 2-4 2 6 2-6 2 3 2-2 1 3h3c2 3 3 3 3 7h4l2-2v2l4 1 1-2 2 2 2-1 7 3 3-1 2 1 1 7 4 1h-15v-4h-2l-1 4c-8-1-8-1-11-4h-3l-7-1c-4-3-9-3-14-3v-2l-1-2-3-1-1-1-2 3-6-2v-2h-7v-2l-5-1v-2h-2v-2h-6l-2-6h-3c-4 0-5-2-8-5l3-2 3 2h3l3 3v3l8-1v-3c0-5 2-9 7-10z" fill="#383a3b"/><path d="m167 281-3 2 4 3 3-1 1 8h2v-3l-1-6 4 1h-2v6h2l3 7h-2l1 3h2v3h2v-4h3l-1 2v2l2 2v2l5 1v2h3v-4l2-2 2 2c8 9 16 15 26 21l7 5 12 4 7 2v2c-6 0-12 0-18-2h-2c-8-2-15-4-22-8v-2h-2l-9-4-4-2-2-2v-2l-3-1v-3h-3v-4l-2 1h-2l-4-4v-2l-4-1v-2l-3-1v-3l-3-1v-2h-2l-1-4h-2c-2-3-3-4-3-8l1-3h6z" fill="#908e80"/><path d="M84 236h7l1 6v3l1 7c2 14 8 27 14 39l1 2 9 13 1 4h2l3 5 8 8c3 4 3 8 3 13l-4-1v-2l-1-2-2-1c-4-1-6-4-8-6l-2-2-4-5-2-2c-18-23-28-51-27-79z" fill="#d7d7c7"/><path d="m123 136 4 1 1 5-4 5c-11 12-18 25-24 40l-1 2c-5 13-7 26-8 40h-8l3-21v-7c2-19 13-41 27-54l5-6 3-3 2-2z" fill="#ebecd9"/><path d="M102 203h1v6l-1 4-1 6v20a28 28 0 0 0 4 1l1-1v-7c0-7 0-7 2-10l3-2 3-2c4-1 9-1 13 1 3 2 5 4 5 8 0 6-1 10-3 16l3 2-7 1-1 5-3-2h-3v-2h5v-2h-9v2l2 1v2h-2l2 4 5-3 1 2h-2l1 2 2-1-1 4h-2v3l3 1v2h-2v2l-3-1v-3h-2l1 6-3-1 1-5h-2l-1 3-1-2-3-3-4 1-1-8h-2c-2-7-2-13-2-20v-3l3-27zm14 25c-2 2-2 2-2 6 0 3 0 4 2 7 3 2 5 2 9 1 3-2 5-3 6-6l-2-8c-4-4-8-3-13 0z" fill="#abac9e"/><path d="M292 125h2l5 5 3 2 2 1v2h-2l-1 3-5 11-2 2-2 4-2 4-6 9-2 2-1 2h-1c0-5 1-7 4-11l4-8c2-4 3-7 6-10l2-5-1-2-4 3-2 3-1 3-2 3-1 3-6 13-5 10 5 1 1 4 17-23 4-5 3-5 5-7 4 1 1 4-4 5-11 15-2 2h-2l-1 2-6 8-2 3c-4 2-6 3-10 3l-7-4a243 243 0 0 1 18-44l5-9z" fill="#e4e9d8"/><path d="M319 149h3l4 5 2 3 2 5-4 5-10 9-12 10-7 7-4 1-2-1v-2l-2-1c-2-1-3-2-4-5l3-3 1-2 4-1v-2a136 136 0 0 1 5-5c7-7 14-13 19-21l2-2z" fill="#d9dcd1"/><path d="m133 327 8 6 13 9 3 2a126 126 0 0 0 52 19l9 1h6l-1 8c-13 0-25-2-37-6v-2h-2l-23-8v-2h-2l-5-2v-2l-3-1c-4-1-5-2-7-5v-2h-2c-3 0-5-1-7-3v-2l-2-1 1-3h-2l1-6z" fill="#949388"/><path d="M301 258c8 2 14 5 22 9l17 8 3 1v8h-2v2l-3 4-2 1-3-2-3-2-2-2-11-6-4-2v2l2 1 5 4 2 1 2 2 9 6v2h2v2c-9-3-16-10-24-17l-10-7-4-5c0-4 1-7 4-10z" fill="#b4b1a2"/><path d="M135 217c3 3 3 6 4 11v2c0 11 0 21 5 31a163 163 0 0 1 2 6l1 2-1 7c-5 0-9 0-14-2v2l-3-1h2v-2l-2 1-6-2-2-3 1-2c3 1 3 1 5 4v-2h3v-3l3-1v-3h-3v2l-3 1-1-2h2l-1-4-1 2h-3v-2l-1-3-2-1v-3l-5 3-1-10h9v2h-5v2h2l4-1v-3l5-1-1-2 2-5c2-4 2-8 2-12l3 2v5l2-7h-2v-8z" fill="#e9e7cb"/><path d="M266 121h10l8 1c-1 7-4 13-6 19l-1 2-12 33-8-1 2-12 2-16c1-9 2-17 5-26z" fill="#e4e8df"/><path d="m281 284 4 4 3 2 2 3 3 2c6 7 6 7 6 9h2l3 3 1 2 2 2 1 2 5 10-3 3-7-9-13-17-2-5h-2l-5-6-2 3h-4l1 2 1 3 2 2 2 6 6 13 1 3c2 4 4 8 8 11l-5-13c-2-3-2-3-2-7h-2l-1-2-5-10-1-4 1-2c5 5 9 11 12 17l2 3c8 14 8 14 8 18l-4 3-3 2-6 1-1-2-3-7-5-11-4-9c-7-15-7-15-7-23 4-2 6-4 11-2z" fill="#c4c6be"/><path d="m294 272 5 5 9 8 9 7 3 3 3 2 6 5-3 8-2 2-1 2h-2l-1 2-3-3-2-2c-2-2-2-2-2-5l-4-1v-2h-2v-2l-1-2-2-1-7-4-2-2-2-3-4-4-1-2-4-2c0-3 1-4 4-7l6-2z" fill="#c8c3ad"/><path d="M268 113v2h-14l-17 3h-7c-9 1-17 5-25 8l-8 3 1-2 2-5-2-2c0-4 2-7 4-10 13-9 53-3 66 3z" fill="#eeefdf"/><path d="M282 253h1v6h-2c-3 1-4 3-6 6l2 1 1-3h3v-3l5-1v3l4-1-2 3h-2l-1 2-2 4h-2l-1 4h-3v2h-3l-1 3c-11 6-25 4-37 4v-8l1-4h2c18 1 18 1 33-6l8-10 2-2z" fill="#afada0"/><path d="m186 323 3 1v2h2l9 6 7 3 3 1 17 6 4 2 14 2h33l-1 2-5 1-4 2c-7 2-13 3-20 3l-7 1v-2h-5l-2-6h-3l1 2c-7-1-7-1-9-3l-1-1-3 2-1-3-3 1-3-1-2 1c-4-1-5-4-7-8l-3 1v-3l-3 4-1-1-3 3-1-6-2 3-1-2-4-3-6-3 3-6h3l1-1z" fill="#70706c"/><path d="M154 267h3v2l2 1 2 2h3l1 1h3l1 2 3 3h2l1-5 6 9c4 8 8 14 13 20l2 4-2 4 2 1-2 1-6-3-2 1v-2l-2-3 2-5-3 4h-2v-3l-3 1-1-2 2-3-2-2v-4h-2v-6c-2 3-1 6 0 9l-4-1v-6h-3l-7-1c1-3 1-3 4-5h-4l-1 3c-4-3-6-7-8-12v-2l2-1v-2z" fill="#ceccb8"/><path d="M296 212c4 6 4 13 4 20v3c0 9-2 19-9 26h-4l-1 2-2-3h-3v3h-3l-1 4-3-2 3-3 1-2 2-2h2l1-4 4-14a53 53 0 0 0 2-6h4l3-1h2l1-2h-10l-1-12 1 2h2l-1-6 4-1v4l2-1v-5z" fill="#e0ddc8"/><path d="M365 236h6c-3 44-3 44-16 58h-3v2h-2l1-4-2-1v-2h2v-2c0-4 0-5 2-8 5-11 6-24 8-36 1-7 1-7 4-7z" fill="#d9d6c0"/><path d="M214 250h20l4 1v7h2l8-1h21c-1 3-2 4-5 6-6 3-13 1-19 0-13-3-26-3-39-3v-7c0-4 4-3 8-3z" fill="#e7e3cc"/><path d="M350 198v6h-3l-31 9-4 1 2 4 3-1 18-5h3l6-1 6-2h2l1 5v3h-4l-20 3-16 1h-2l-5-1c-2-3-2-4-2-8l4-1 28-11c9-3 9-3 14-2z" fill="#dcddcb"/><path d="m339 175 2 1 1 5-3 1-8 3-14 8-2 1-3 1-2 1-5 1v5l16-7 2-1 10-5 3-2 3-1h6v4l-2 1-21 9c-14 7-14 7-21 7l-4-9 7-5 1-1 4-3 4-2c3-3 6-5 10-5h5v-2c3-3 7-5 11-5z" fill="#ebecd2"/><path d="M355 225v6h-42v5l42-1v5h-48v-14l48-1z" fill="#f7f7e7"/><path d="m306 244 9 1h3l10 2h9c6 1 11 1 16 3l-1 7-10-2-29-6-2 5h3l11 2a151 151 0 0 0 18 5l6 3-1 6-11-4-18-6-2-1-13-4 2-11z" fill="#d6d6c8"/><path d="M266 289v8h2l5 11 1 3 1 3 1 3 1 6h2c3 10 3 10 3 16h-5v-2l-10-32-2-7h-3l1 2 8 33 1 5h-6l-3-12-1-2v-8l-2-10v-2l-3-11v-3c3-2 5-2 9-1z" fill="#cbc7b6"/><path d="M235 290h13l-1 40c-9-2-9-2-11-5v-23l7 1v-2h-3c-3 0-3 0-5-2v-9z" fill="#6c6a5d"/><path d="m103 285 5 7 8 14 2 4h2l3 5 8 8c3 4 3 8 3 13l-4-1v-2l-1-2-2-1c-4-1-6-4-8-6l-2-2c-8-9-14-19-19-30l5-1-1 3h2v-5l-3-1h2v-3z" fill="#adab9a"/><path d="m167 281-3 2 4 3 3-1 1 8h2v-3l-1-6 4 1h-2v6h2l3 7h-2l1 3h2v3h2v-4h3l-1 2v2l2 2v2l5 1v2h4c1 4 0 5-1 9l2 1 5 3h5v-2l3-1-1 6h-8l-3-2-4-2-2-2v-2l-3-1v-3h-3v-4l-2 1h-2l-4-4v-2l-4-1v-2l-3-1v-3l-3-1v-2h-2l-1-4h-2c-2-3-3-4-3-8l1-3h6z" fill="#8d8d7e"/><path d="m276 355 2 1v2l4-1 1 3 2 1-2 1h-3l-3 1-6 3-5 1c-3 0-3 0-5 2l-6 1-4 1h-5l-4 1-10 1v-9h2l24-4 4-1 12-3 2-1z" fill="#86847a"/><path d="M247 127v36l-11 1v-13l-1-4c0-12 0-12 3-16 3-2 5-4 9-4z" fill="#d4d7c5"/><path d="M292 125h2l5 5 3 2 2 1v2h-2l-1 3-5 11-2 2-2 4-2 4-6 9-2 2-1 2h-1c0-5 1-7 4-11l4-8c2-4 3-7 6-10l2-5-1-2-4 3-2 3-1 3-2 4-1 3-4 8-3-1c0-6 2-9 5-14l4-11 5-9z" fill="#e7e9db"/><path d="M225 204h30l8 1c-1 4-2 5-5 7h-4l-7 2-11 2h-8c-2-4-3-7-3-12z" fill="#f0f2e2"/><path d="m125 218 7 7v8l-2 4-1-6-2-4h-9l-3 3 1 10c3 2 6 2 9 2-2 2-3 2-6 2-5 0-7-1-11-4-3-5-3-10-2-15 5-7 11-8 19-7z" fill="#050504"/><path d="M159 203h1v6h3l1 7 1-9h3l1 13-5 1c-4 2-7 3-10 6l-4 1 1 1-1 10-2 1-3-1v-29h1v5h2v2h-2l1 2 1-1c2-2 4-3 7-3v-2h2l3-1 1-2-4-2 2-5z" fill="#ededd5"/><path d="M280 294c5 4 8 9 12 14l1 3c10 16 10 16 10 21l-4 3-3 2-6 1-1-2-2-5c-3-5-3-9-2-15l8 13 3 3-5-13c-2-3-2-3-2-7h-2l-1-2-5-10-1-6z" fill="#989587"/><path d="M139 161c4 2 6 3 8 7v9l-2 1-1-3-2-5-8 1c-2 3-1 6 0 9l3 1h6l-3 3h-10l-6-7c0-5-1-9 3-13 4-3 7-4 12-3z" fill="#0b0b0a"/><path d="m350 285 1 4h-2v2l3 1-2 4h2v-2l4-1-2 4-1 3-7 11h-2l-1 2c-2 3-4 6-8 8v-2l-5 2c0-4 0-5 3-8l5-8 5-6 4-9 3-5z" fill="#aeaa9d"/><path d="M142 277v2l3 1c2 3 2 5 2 9v2l-1 5h-2v-7l-2-4h-7c-2 2-2 2-2 6 0 3 0 4 3 7l2 1h-9c-3-3-5-4-5-8-1-4 0-7 2-10 5-6 9-5 16-4z" fill="#080807"/><path d="M301 258c8 2 14 5 22 9l17 8c3 1 3 1 4 4l-2 4h-3l-1-3-4-2-23-11a241 241 0 0 0-6-3l-2 7-5-2-1-5 4-6z" fill="#cecebd"/><path d="M243 202h4c12 0 19 1 28 10l4 5-1 4-4 2-1-3h-2l-1 3-2-3c-2-3-5-5-9-6l-10-1v-1h7l5-4 2-1v-2l-38-1v-1l18-1z" fill="#cbccbe"/><path d="M169 257c7 13 7 13 6 19l-1 2c-3 0-5-1-7-3l-1-2-3 2v-3l-2 1-6-5 1 1v1h-5l-2-10c4-2 6-2 10-2v5l2 1v4l1-2h3l-3-4h4v2h3l-3-4 3-1v-2z" fill="#e6e4cc"/><path d="m231 345 47 1-1 2-5 1-4 2c-7 2-13 3-20 3l-7 1v-2h-5l-1-3-1-3-3-1v-1z" fill="#a9a89f"/><path d="M138 241c2 3 2 5 2 8l4 12c4 11 4 11 2 15-5 0-9 0-14-2v2l-3-1h2v-2l-2 1-6-2-2-3 1-2c3 1 3 1 5 4v-2h3v-3l8-1v-8l-1-4h2l-1-6-3-1 2-1 1-4z" fill="#c5c1aa"/><path d="m107 212 7 1v2h2v-2h2v3l7 1v-5l4 1v2l2 1-2 6-2-1c-4-3-8-3-13-2-4 2-5 3-7 6v15h-7v-18h2v-2l5-2-1-2 1-4z" fill="#f1f1d6"/><path d="M210 219c4 1 5 2 7 5l1 10 3 1 2-2 2 6-3 3a63 63 0 0 1-8 0h-7l1-5 6-1-2-2 2-3h-3c-3 0-3 0-5-2s-2-2-2-5l1-4 5-1z" fill="#edebcc"/><path d="M296 212c4 7 4 14 4 21v8h-2v3h-2l-1-2h-2v2l-4-1 1-9 6-1h2l1-2h-10l-1-12 1 2h2l-1-6 4-1v4l2-1v-5z" fill="#c8c8bb"/><path d="M154 111v2l-6 4-3 5c-4 4-4 4-7 4v2h3l-7 9-3 2-2 2-3-4c-4 1-5 2-8 5l-9 10c1-5 4-8 8-11l1-2 19-18h2v-2a102 102 0 0 1 6-4l2-1 7-3z" fill="#d3d4c6"/><path d="m191 360 14 1c6 2 12 3 19 3l-1 8c-13 0-25-2-37-6l2-1 1-2 1 3 6 1v-5l-3-1-1 4-1-5z" fill="#66655e"/><path d="M305 247v2l1 2 3 1 2-2v4h3l11 2a151 151 0 0 0 18 5l6 3-1 6-11-4-18-6-2-1-13-4 1-8z" fill="#d5d4bb"/><path d="m258 220 5 4c1 4 1 7-1 11l-9 2-5-4c-2-4-3-6-2-10 3-4 7-4 12-3z" fill="#f1f3e4"/><path d="M355 225h1l-1 9c-5 3-9 2-14 2h-28v-5c33-2 33-2 42 0v-6z" fill="#484945"/><path d="M237 183h23l-2 8 7 1v1l-28-1v-9z" fill="#f7f9e7"/><path d="m123 136 4 1 1 5-5 6-2 3-2 1-7 11-5-4c0-5 3-8 6-12l1-1 9-10z" fill="#f0f1e1"/><path d="m318 158 5 1 1 4-2 1-10 9c-14 14-14 14-19 16l-1-6 2-1 15-14 2-1 7-9z" fill="#0f100f"/><path d="M224 91v9h-8l-3 1h-4l-5 1h-7l-1-6c9-3 18-5 28-5z" fill="#eff1e3"/><path d="M355 225v6h-1v-5h-3l-43 1v12l24-1-18-1v-1l41-1v5h-48v-14l48-1z" fill="#d2d3c7"/><path d="m115 306 3 2v2h2l3 5 8 8c3 4 3 8 3 13l-4-1v-2l-1-2-2-1c-4-1-6-4-9-7l-1-2-4-4 2-1v-10z" fill="#a3a190"/><path d="M320 151c4 1 5 2 7 5l2 2 1 4-4 5-13 12-6 4c0-7 3-9 7-14l2-2c5-4 5-4 8-4l-2-4h-7l2-2 3-6z" fill="#e9ebe3"/><path d="M173 127c2 2 3 3 3 5 1 7 1 7-2 10h-10c-3-2-3-4-3-7 0-4 0-4 2-6 3-3 6-2 10-2z" fill="#101010"/><path d="M167 314c6 1 6 1 9 4l1 10-2 2-2-6h-3l-2 6 6 1-1 2c-4 0-6 0-10-2-2-2-3-3-3-7 0-5 2-9 7-10z" fill="#060606"/><path d="M105 203v6l4-1v-4l4-1 3 2 2-1 4-1-2 6 2 2-1 3h2v-2h2l1 3-1 2h-8l1-4h-2v2l-9-3v6l-2 1-4 3c0-7 1-13 4-19z" fill="#f7f7dd"/><path d="M293 278c3 1 5 1 7 4 3 5 8 8 13 12a118 118 0 0 1 6 5v2l4 2-1 4c-5 0-7-3-10-6l-6-6-10-9-6-4 3-4z" fill="#161614"/><path d="m271 125 6 1c-3 14-7 29-13 42h-2l3-21 1-3 5-19z" fill="#131413"/><path d="M190 223h1l-1 9-1 14v11h2v-4l-1-7h4l-1-2 1-9-1-2 7-1-2 4h-2l1 5h2v-2l5-1 3 2c-1 3-2 4-5 6a35 35 0 0 0-11 13l-3-1c-2-5-1-11-1-16v-3c0-6 0-11 3-16z" fill="#ecebd4"/><path d="m281 284-1 7-5 1 1 2 6 14 2 3 1 9-2 1-8-17-1-4-2-3-1-4-1-7c4-2 6-3 11-2z" fill="#b3b0a5"/><path d="M282 253h1v6h-2c-3 1-4 3-6 6l2 1 1-3h3v-3l5-1v3l4-1-2 3h-2l-1 2-2 4h-3v2h-4l-1 3-3-2-1 2-4-1h-2l-2-1-1-3 2-1c7-3 11-7 16-14l2-2z" fill="#cacab9"/><path d="m196 305 11 10c2 3 5 5 9 7l-3 3h-2l-2 2-1-4-1 1-6 1-4-4-2-1 1-10h-2l2-5z" fill="#b4b4a4"/><path d="M115 287c3 1 3 3 4 6l2-1v3l4-2c4 5 4 5 4 8l7 1v2h2l1 2 2-1v2l2 1-1 5h-3l-1-4-5 2v-3l-3 3-1-3h-2l-2-1-2-6h-2l-3-5-2-2-1-7z" fill="#615f5b"/><path d="m258 124-3 48h-3v-33l1-14 5-1z" fill="#e9eee1"/><path d="M147 284c5 0 5 0 7 2 5 6 9 13 9 21l-4-1v-4h-2l-6-2-2 1 1-2v-3h-3l-1 3h-2v-3h2l1-12z" fill="#aeaf9d"/><path d="m293 135 4 2-5 10-8 15-3 5 1 6h-2l1 6-2 1-1-5-4-1 3-7 4-7 6-15 1-2 5-8z" fill="#161716"/><path d="m206 93-9 4v6l-11 3-3 1h-2v-2l-2-4-2 1-8 1c4-4 9-5 14-6l3-1c7-2 13-4 20-3z" fill="#c0c1b5"/><path d="m217 166 3 3c1 4 1 7-1 10-3 2-6 1-9 1l-5-5c0-4 0-6 3-9h9z" fill="#040505"/><path d="M260 298h2c3 12 7 23 9 35l1 5h-6c-2-4-3-7-3-11v-2l-1-4-1-7-1-16z" fill="#bfbcaa"/><path d="M365 236h6c0 7-1 13-3 20h-2l-1 2c-1 3-2 4-5 5l1-13v-7l1-3c0-4 0-4 3-4z" fill="#ebecd9"/><path d="m156 169-4 9c-4 9-8 17-10 27h-1l-1-3-3-5 1-3 4-13 4-4 1-7 2 2 2-1 5-2z" fill="#e4e5ce"/><path d="M353 210v7l-33 3 2-1 1-3c7-3 14-4 21-5 7-2 7-2 9-1z" fill="#d4d7cd"/><path d="m110 269 1 2 4 3h-2l1 5 5-2 3 3v5l1-2 2 1-1 10c-4 0-4 0-6-2l-2-4-3-1-2-8h-2l-3-9 4-1z" fill="#9c9a8c"/><path d="M114 245h9v2h-5v2l4-1 1 3 3-1 4 2-1 2 1 1 3 4 3-2 2 7-5 1v-3h-3v2l-3 1-1-2h2l-1-4-1 2h-3v-2l-1-3-2-1v-3l-5 3-1-10z" fill="#d9d6be"/><path d="M108 152v7l3 2-3 9c-3 4-4 9-6 13v-6h-3c-2-7-1-11 3-18l6-7z" fill="#eeefdd"/><path d="m150 295 2 1-1 2 3 2v5l-1-2v3l4 1v3l-4 1-3-2-6-1 4-2-1-1-1-1-1 2h-8l1-2h-2v-2l-7-1v-2h2c4-1 9-1 13-3v3l1-1 5-3z" fill="#828375"/><path d="M207 251h27l-1 5-3-1v-2h-2l1 2-1 4h-19l1-2h3l-6-2v-4z" fill="#eef0dd"/><path d="M345 186v4l-2 1c-4 1-9 3-13 6l-3 1-5 3c-6 3-10 4-16 2l7-4 10-5 2-1 9-5 3-1 2-1h6z" fill="#dcdfd4"/><path d="m305 264 14 6 18 9 3 3v2h-6l-2-1-3-1-2-2-3-1-6-4v-2h-4l-3-1-6-2v-6z" fill="#10100f"/><path d="m215 283 4 5c0 4-1 5-3 8l-7 1-5-5 1-8 10-1z" fill="#010101"/><path d="m277 157 3 1c1 6-3 11-6 16l5 1 1 4 6-8 1 3 2 1c-7 7-7 7-12 7l-8-4 8-21z" fill="#e0e3de"/><path d="m253 295 3 1 1 39h-4l-1-27v-8l1-5z" fill="#d2ceba"/><path d="M271 225h1l1 7 3 1h-2l-1 2c-1 3-4 5-6 7l-1 3-4-1-1 2v-2h-8l-6-1 1 5h-2v2l20 1v1h-26v-7h3l1-5h-2v-5l4 4v2c6 2 13 2 18-1 5-4 6-7 7-13v-2z" fill="#cfcfbc"/><path d="m88 204 1 2h2v23h-8c1-21 1-21 5-25z" fill="#e7e9d7"/><path d="m316 297 8 3 1-2 4 4c0 3-2 6-3 8l-2 2-1 2h-2l-1 2-3-3-2-2c-2-2-2-2-2-5l-4-1v-2h-2l1-2 3 2 4-1 1 2 2 2h4l-1-4-2-1v-2l-3-1v-1z" fill="#a4a192"/><path d="m293 128 1 2h2v6h-2c-3 1-3 3-5 6l-1 3-2 4-1 3-4 8-3-1c0-6 2-9 5-14l3-8c2-4 3-7 7-9z" fill="#dbe2d7"/><path d="m142 320 2 1 5 1 3 3v3h2l7-1 5 5v2h4l6 1-1 3-3-1-5 1-6-1v-2h-2v-2h-6l-2-6h-3c-4 0-5-2-8-5l2-2z" fill="#2f3234"/><path d="M84 236h7l2 24h-6l-1-7-1-3-1-14z" fill="#ebecda"/><path d="m161 245 2 2-1 3 6-1 1 10-2 1 2 4h-3v-2l-2 1 1 3h-3l-1 3-1-5h-2l-1-4h2v-2l-10 2-1-5 2-1v3a101 101 0 0 0 6-2l1-2h4v2l-2 1 1 1 3 3h2l-1-4h-2l1-5h-4v-2h2v-4z" fill="#ece9cd"/><path d="m239 138 5 1v7h-3v13h3v-5h2l1-2v11h-10v-12c0-5 0-9 2-13z" fill="#f1f3df"/><path d="m178 306 3 1h5v3l1-2 5 1v2h4c1 4 0 5-1 9l2 1 5 3h5v-2l3-1-1 6h-8l-3-2-4-2-2-2v-2l-3-1v-3h-3v-4l-2 1h-2l-4-4v-2z" fill="#7c7c71"/><path d="M306 117c5 1 8 3 11 6l3 2 5 5h-2l1 6-3 1-2-2-2-2-3-2-5-4c-3-3-3-6-3-10z" fill="#eff0e1"/><path d="M214 250h20l4 1 1 9h-33c0-10 0-10 8-10zm-7 1 1 4 5 2-4 1v1h19v-6h2l1 3 2-1 1-4h-27z" fill="#ecead5"/><path d="m330 319 2 1 5-1v3l-3 1-2 5-4 4-2 2-4 2 1-8h-3l1 6-5-3 3-4h2l1-2c2-3 4-6 8-6z" fill="#938f83"/><path d="m133 201 2 4-1 3 1 6 2 1 1 2-1 7v1l-1 7-2 1v-3c0-3 0-3-2-5l-2-2 1-5-2-5-4-1 6-8 2-3z" fill="#f2f1d8"/><path d="M358 199c4 6 6 15 5 23l1-9h3l2-3 2 19h-9v-2c-1-7-1-14-3-20l-1-8z" fill="#c4c5b5"/><path d="M287 275v3l-1 1 2 1c6 3 11 8 16 13l6 6 3 2v2l-3 1v-2l-4-1v-2l-2-1-7-4-2-2-2-3-4-4-1-2-4-2 3-6z" fill="#c4bcab"/><path d="m276 355 2 1v2l4-1 1 3 2 1-2 1h-3l-3 1-6 3-6 1v-6h-4v2l-7-1v-1l4-1 4-1h3l9-3 2-1z" fill="#7b756c"/><path d="m174 334 9 1 2 5h2v2h4l2 5h-7v-2l-1-2-3-1-1-1-2 3-6-2v-2h-7v-2l-3-1 5-1h6l1 1 1-2-2-1z" fill="#1f2327"/><path d="m363 194 3 3 2 17-4-1 1 2-1 6 2 1h-3l-2-10-1-2-1-15 4 1v-2z" fill="#f7f7e1"/><path d="m285 316 8 13 3 3 1-3 4 1-1 4c-4 3-5 4-10 4l-1-2-2-5c-3-5-3-9-2-15z" fill="#89857b"/><path d="M235 290h13l-1 10h-8l-4-1v-9z" fill="#babab0"/><path d="m339 175 2 1 1 5-3 1-10 5-4 1-2-1v-2l-7 1 4-4h8v-2c3-3 7-5 11-5z" fill="#e2e4d3"/><path d="m108 187 2 2-1 4v2l2 1v-2h3l1 3-2 1-1 3h-2l1 3h-2l1 2v2l-2 2-4-1v-3h-1c1-15 1-15 5-19z" fill="#e7e7d0"/><path d="M237 273h20l-2 3h-3l-1 3c-4 2-9 3-14 3v-9z" fill="#f2f1de"/><path d="M266 121h6l2 3h-3v2l-5 22-3-1c0-6 0-12 2-17v-3l1-6z" fill="#eff2e4"/><path d="M168 228h3c3 0 3 0 5 2v5c-2 2-5 1-7 1h-4c-3 0-3 0-5-2v-5l8-1z" fill="#dfe2d6"/><path d="M234 90c16 0 33 3 48 9l1 2c-7 0-12-1-18-3a101 101 0 0 0-30-6l-1-2z" fill="#161615"/><path d="M124 273h7l1 1c5 1 11 2 16 0l4 6 2 3 1 3-1 2-4-3-1 1-1-2h-2l-1-2-3-3v-2c-5 0-9 0-14 2l-2 3-2-1 1-3-1-5z" fill="#bcb9a6"/><path d="M133 327c5 2 8 5 11 9v2l4 1v2h-2l2 5h-3l-1-4h-2c-3 0-5-1-7-3v-2l-2-1 1-3h-2l1-6z" fill="#8d8b80"/><path d="M150 217c2 3 3 6 3 10l-3 1 1 1-1 10-2 1-3-1v-11c-1-4 0-5 3-9l2-2z" fill="#f3f2d8"/><path d="m158 308 2 1v1l5 5-6 9-4-1 1-4-1-2 1-1-8 1v-7l4 1h-2v2l2-1 2-2 2-1 2-1z" fill="#716f6b"/><path d="m330 258 7 2h2l10 4-1 6a62 62 0 0 1-8-2l-2-1-2-1-3-1-5-2 2-1v-4z" fill="#d7d7c2"/><path d="m184 330 3 4 1-3 2 6 2-4 3 11-1 2h-2l-1-4h-4v-2l-3 1-1-2c-1-3-1-3-4-4l-2-1 1-3 6-1z" fill="#3f4041"/><path d="m175 313 3 2v2l4 2v2l4 1-2 5-2-2-1 2 2 2-2 1-4 4h-11v-1h3l4-1 1-2h2l-1-17z" fill="#74746c"/><path d="m173 284 4 1h-2v6h2l3 7h-2l1 3h2v3h2v-4h3l-1 2v2l2 2h-2l-1 3c-8-2-8-2-11-5l1-11a177 177 0 0 0-1-7v-2z" fill="#959381"/><path d="M229 235h13v5h2l-1 5h-2l-9-2-4-1h-2v-2l6-1v-2h-3v-2z" fill="#f8f9e3"/><path d="m250 120-2 1-20 10h-6l-1-4 1-2a148 148 0 0 1 9-3h2c12-4 12-4 17-2z" fill="#f0f1e5"/><path d="m247 243 17 1-1 4h-3l2 3h-17l1-3h2v-2l-2-1 1-2z" fill="#f7f7e1"/><path d="m266 98 14 4v2l4 1-3 1 1 3c-6 0-10-1-15-4l-1-7z" fill="#f5f6e6"/><path d="m280 270 1 3-4 1v2h-3l-1 3c-11 6-25 4-37 4v-10h1l1 8 4-1 17 1 1-3 3 1h4l4-1v-2h2l1-2 2-2h4v-2z" fill="#595953"/><path d="M154 267h3v2l2 1 2 2h3v8l-3 1-1 3c-4-3-6-7-8-12v-2l2-1v-2z" fill="#aaa997"/><path d="M159 258v5l2 1 1 6-7-2 1 1v1h-5l-2-10c4-2 6-2 10-2z" fill="#c7c6b3"/><path d="M275 316c2 3 2 3 2 7h2c3 10 3 10 3 16h-5l-5-19 3-1v-3z" fill="#989688"/><path d="m172 356 2 1c2 2 4 3 7 3l3-3 7 2 1 5 1-3 4 1-1 5-6-1-1-2-3 1-8-2-2-1-5-2 1-4z" fill="#868478"/><path d="m108 252 4 1v2l7 1 1 5 3 1v2h-2v2l-3-1v-3h-2l1 6-3-1 1-5h-2l-1 3-1-2-4-3 3-5-2-1v-2z" fill="#c8c5b2"/><path d="m210 219 5 3 1 7c-3 2-6 1-9 1l-3-3 1-7 5-1z" fill="#101010"/><path d="M314 232h34l1 3h-35v-3z"/><path d="m182 101-1 3v3l-5 3-3 1-5 1 2-7-2 1h-7c4-3 7-3 11-4l5-1h5z" fill="#ddded2"/><path d="M289 234h1l-1 9 4 1v-2l3-1v3h2l1-3c0 5-1 9-4 14l-1-2h-3v-2l-1-2-2-1h3l1-2-4-2-1 3-4 6 1-3 3-10 1-3 1-3z" fill="#d4d1b8"/><path d="m304 309 9 12-1 4-3 1-2-3-4-7-5-8c3-1 4-1 6 1z" fill="#9c988b"/><path d="M103 285c4 3 5 7 7 12l-1 5-1 3h-2l-1-3h-2l-5-10 5-1-1 3h2v-5l-3-1h2v-3z" fill="#bfbdab"/><path d="m223 345 3 1h6l2 1 1 7 4 1h-15l-1-5-3-1 3-4z" fill="#242326"/><path d="M264 127h1l-1 12v7l2 2-1 5v3l-1 3-1 3-1 6-3-1 1-12 1-4 3-24z" fill="#c7cbc1"/><path d="m212 323 7 1v3h-2v3l4 2v3l-5-1-3-1-4-2v-2h-3l1-4v2l5-4z" fill="#a1a092"/><path d="m132 307 3 2 4-1 1 5 2-3 2 1-1 2 1 6-6 1c-3-2-6-4-7-8l1-5z" fill="#3f4041"/><path d="M292 146h1c1 10-5 17-11 25l-1 1h-1c0-5 1-7 4-11l6-11 2-4z" fill="#e5e9e5"/><path d="m114 247 2 1v2h-2l2 4 5-3 1 2h-2l1 2 2-1-1 4c-5 0-8-1-12-5v4l-5 4-2-6 3-1-2-1v-2h8l-1-1 3-3z" fill="#c6c3ad"/><path d="m235 347 11 2v2l7-1v1l7 1 1-2h6c-6 4-15 4-23 4l-3 1v-2h-5l-1-6z" fill="#656158"/><path d="m130 266 9 1v3l3 1-2 1-5-2-1 4h-2v2l-3-1h2v-2l-2 1-6-2-2-3 1-2c3 1 3 1 5 4v-2h3v-3z" fill="#c7c2ac"/><path d="M319 149h3v2h-2v2l-4 5 1 2-3 4-2 2-4 3-1-3-2-1 3-3 3-3 2-2 1-2 2-1 3-5z" fill="#d9dcd4"/><path d="m280 294 10 11 1 2c2 3 3 5 3 9l-4-1-1-3h-2l-1-2-5-10-1-6z" fill="#b3b6ae"/><path d="M306 275h7v4l2 1 5 4 2 1 2 2 9 6v2h2v2c-11-4-21-14-29-22z" fill="#949082"/><path d="M135 217c2 2 3 3 3 6v17l-6-1-1 2 1-16 3 2v5l2-7h-2v-8z" fill="#ddddca"/><path d="m266 160 1 4 2 1-4 11-8-1 1-7 3-2v2h3l2-8z" fill="#dcded2"/><path d="m305 194 1 8h5v3l-10 2-4-9 8-4z" fill="#eaedde"/><path d="m350 285 1 4h-2v2l3 1-2 4h2v-2l4-1-2 4-1 3-6 9h-1l1-11 2 1v2h2l-1-4-4-1 4-11z" fill="#a9a89a"/><path d="m181 284 4 8-2 1v2l2 1-1 1 2 1v2l-2 2-1 2h-2v-3l-3 1-1-2 2-3-2-2v-4l2-1 3-3-3-1h2v-2z" fill="#bfbda8"/><path d="M271 220h2l1 2h2l2-2c2 2 2 2 2 6v3l-2 1-2-1 1 4h-5l-1-13zm3 13 2 1-2 1v-2z" fill="#f8f9e6"/><path d="M232 93h9l6 1v3l-2 1v1l-13 1v-7z" fill="#f8faee"/><path d="M293 272c4 1 6 4 8 7l3 3h-5l-3-3-4 1h-5l-2-1c4-7 4-7 8-7z" fill="#b0b0a4"/><path d="m301 258 5 2c0 5-1 7-3 11l-5-2-1-5 4-6z" fill="#e9ead2"/><path d="M224 251h10l-1 5-3-1v-2h-2l1 2-1 4h-19l1-2h15v-2l-3-1 2-3z" fill="#f3f3de"/><path d="m345 296 5 1 1 4h-2l-1-2-2 10-8 1v-3l2-1v-2c1-4 3-5 5-8z" fill="#bab7a7"/><path d="m205 335 13 5 15 4-2 3 1 2c-6 0-6 0-9-3l-2-2-2-1v-2l-3 1-2-1v-2l-4 2v-2l-2-1-1 2-2-5z" fill="#5a5958"/><path d="m306 244 9 1h6l2 1 5 2-11 1-7 1-1 3-3-2v-7z" fill="#f2f3e0"/><path d="M147 284h5c2 2 3 3 3 6l-1 1c-2 2-2 2-2 5h-5l-1 3h-2v-3h2l1-12z" fill="#c0c0ad"/><path d="M258 257h11c-1 3-2 4-5 6-7 3-15 1-22-1l3-1 1-2 1 2h7l5-1 1 1 2-1v-2l-4-1z" fill="#b2ab9a"/><path d="M237 167h8l3 1v6h-11v-7z" fill="#f1f4ea"/><path d="m237 303 4 1v19h-4v-20z" fill="#cac5b3"/><path d="m160 308 7 1 5 1 1 3h2l1 4-5-1h-3c-5-1-7-3-10-6l2-2z" fill="#949284"/><path d="M361 243h1c0 7 0 13-2 20l3-2-1-2 3-1 1-2h2v4l-1 3-2 5-2-4-2 1-3 1 3-23z" fill="#c2c2b2"/><path d="m290 234 9 1-1 9h-2l-1-2h-2v2l-4-1 1-9z" fill="#f6f7e5"/><path d="M82 238h2l4 30h-2l-1-6-1-3-2-15v-6z" fill="#181917"/><path d="m176 132 3 5 3 1c-1 5-4 7-8 10l-2-1v-3h-7l-1-2h3c5 0 5 0 8-2l1-8z" fill="#d7dacf"/><path d="M170 105c-1 8-1 8-4 9h-8l1-5h2v-2l9-2z" fill="#f5f7e5"/><path d="M144 217h1l1 22 2 1v2h2l-1 4 2 1-4 6c-4-7-3-16-3-24v-12z" fill="#d1d3c3"/><path d="M250 347h6l-1 4h3l-1-4h18l-4 2-1 1-7 1-3 1h-8l1-3h-3v-2z" fill="#b8b5ab"/><path d="M266 317c3 3 3 5 4 9v4l1 3 1 3v2h-6l-2-7h2v-14z" fill="#9c998d"/><path d="M114 245h9v2h-5v2l4-1c2 3 2 5 2 9l-4-2v-3l-5 3-1-10z" fill="#e7e6cd"/><path d="M266 289v7c-3 2-3 2-7 2l-2-8c3-2 5-2 9-1z" fill="#eae9d2"/><path d="M102 253h1l2 7 5-1 2 5 1-2h2v7h-3c-2-3-2-3-2-7l-2 1v5h-3c-2-5-3-9-3-15z" fill="#96998e"/><path d="m293 350-2 2-5 8h-3l-1-2-7 1 2-1 1-2c2-3 4-4 7-5l3-1h5z" fill="#959183"/><path d="m220 344 3 1-1 3 2 3h-2l-1 4c-7 0-7 0-10-3l-2-2 1-3h2v2l5 2v-2h2l1-5z" fill="#212123"/><path d="M126 322c3 1 5 1 7 4l1 10-4-1v-2l-1-2-3-1v-2h2l-2-3v-3z" fill="#acaa9c"/><path d="M196 305c6 4 6 4 7 8v2l-4 1v4h-4l1-10h-2l2-5z" fill="#b2b3a3"/><path d="M115 287c3 1 3 3 4 6l2-1v3l4-2 2 3-4 1 2 3v4h4v4l-4-1-2-6h-2l-3-5-2-2-1-7z" fill="#52534f"/><path d="m212 342 1 2 4 1 1-2 1 4v2h-2v2l-5-2v-2l-2 2-5 2-2-1h3l1-2 1-3 3-1 1-2z" fill="#393837"/><path d="M320 166h1v5l-5 5-2 3-7 4c0-4 1-6 3-8l3-3c4-2 4-2 7-6z" fill="#f0f3e3"/><path d="m146 302 1 3 3-1v2l-3 2v9l1 2h-4v-2l-4-1h3l-1-7-2-1 1-3 4-1 1-2z" fill="#5e5d57"/><path d="M271 225h1l1 7 3 1h-2l-1 2c-1 3-4 5-6 7l-1 3-4-1-1 2v-2h-11l-1-2h2c8 0 12 0 18-6 2-3 2-7 2-11z" fill="#bec1b8"/><path d="M255 137h1l-1 29h-2l1-28 1-1z" fill="#f6faee"/><path d="m206 340 1 5-2 3h-5v-2l-1-3-2-1c3-2 5-2 9-2z" fill="#0d0e10"/><path d="m293 128 1 2h2v6h-2c-3 1-3 3-5 5l-2-1c0-7 0-7 4-10l2-2z" fill="#f1f6e3"/><path d="m149 115-1 10-5 4-5-1 1-4 4-2v-2l6-5z" fill="#f2f3e1"/><path d="M195 314v6l2 1 5 3h5v-2l3-1-1 6h-8l-3-2-4-2-2-2 3-7z" fill="#606056"/><path d="M304 266v2l3 3 2 1c4 0 6 1 8 4-7 1-12 0-17-4l-1-2h4l1-4z" fill="#d7ceba"/><path d="M332 215h5l-2 4-8 1h-7l2-1 1-3 9-1z" fill="#f2f3de"/><path d="m135 205 1 2 3 1 2-3-2 12h-2v-2l-3-1-1-4-3-1h2l2-1 1-3z" fill="#eeeed2"/><path d="M263 97h3l1 8 5 1c-4 1-6 0-10-1l-2-1-5-1v-1h5l1-3h2v-2z" fill="#cfd1c6"/><path d="m110 269 1 2 4 3h-2l2 9-1-2-3 1v-3h-2l-3-9 4-1z" fill="#76766b"/><path d="m284 259 3 2 3 1-2 1-3 3-3 3h-2v-2l-2-1v-3h3v-3l3-1z" fill="#cdcdb9"/><path d="M280 226h1l-1 10h-2v5l-4-1v-2l-2-2 2-1 2-2v-4h3l1-3z" fill="#e7e7d3"/><path d="M299 224v6h-9v-6h9z" fill="#f1f2e2"/><path d="M151 217h2v2h2v-2h2v3h2l1-3 1 5-8 5c-2-3-2-6-2-10z" fill="#e7e5ca"/><path d="M190 223h1l-1 9-1 14v11l3 1h-4c-2-5-1-10-1-16v-3c0-6 0-11 3-16z" fill="#a5a7a3"/><path d="M209 365h13l1 3-5 3-2-2a90 90 0 0 0-6-1v2l-2-1 1-4z" fill="#8a887c"/><path d="m178 321 2 1 1 5 2 2-2 1-4 4h-11v-1h3l4-1 1-2h2l2-9z" fill="#8f918f"/><path d="M278 284v7h-7l-1-5c3-2 4-2 8-2z" fill="#cecebf"/><path d="M272 271h1v5h-2v2l-10 2-3-4 5-2 1 3 3-1-1-4 1 2 4 1 1-4z" fill="#aba694"/><path d="m203 113 2 1 1 5-3 3-4-1-1-5c2-2 2-3 5-3z" fill="#181918"/><path d="m95 282 5 3h3l1 9-3 1v-3l-4-1-2-9z" fill="#e6e5d0"/><path d="m127 259 2 1-1 4h2v-2h3l3 4h-6v3h-3v2l-3-1h2l1-4h-3l1-5h2v-2z" fill="#b6b39c"/><path d="M305 247v2l1 2 3 1 2-2v4h7l-2 2 1 2-13-3 1-8z" fill="#bec0ad"/><path d="M252 132h1v34h2v6h-3v-40z" fill="#868c87"/><path d="M171 354c5 0 9 1 13 3l-2 1-1 3-8-4-3 2 1-5z" fill="#a2a095"/><path d="M256 316h1v19h-4v-9h2l1-10z" fill="#aaa891"/><path d="M144 296v4l-8 4v-2l-7-1v-2h4l3-1 8-2z" fill="#999c93"/><path d="M127 247c3 1 6 1 8 4 0 4 0 6-2 10l-1-3-1-3-3-1 1-6-2-1z" fill="#dfdcc1"/><path d="m341 250 11 1v6l-9-3-2-4z" fill="#f2f1e1"/><path d="m108 222-1 3-1 6v6h-4v-5h2l1-4h-2v3h-2l1-7c2-2 3-2 6-2z" fill="#e8e6ce"/><path d="m163 352 3 1 6-1 2 2h-3l-1 5-9-3 2-4z" fill="#696962"/><path d="M161 332h2v2h8l5 1-1 3-3-1-5 1-6-1v-2l-2-1h2v-2z" fill="#31363a"/><path d="m151 298 3 2v5l-1-2v3l4 1v3l-4 1-3-2-6-1 6-2v-3l1-5z" fill="#7a7a6f"/><path d="m285 251 1 5h2v2l-7 2v3h-3l-1 4-3-2 3-3 1-2 2-2h2l1-3 2-4z" fill="#e2e4d7"/><path d="M279 164h2v3l1 6h-2l1 6-2 1-1-5-4-1 5-10z" fill="#272827"/><path d="M256 111c5 0 8 0 12 2v2h-21v-1h9v-3z" fill="#aeafad"/><path d="M244 303h3v17l-2-1-1-5-1-3 1-8z" fill="#bebbac"/><path d="m123 283 2 1-1 10c-4 0-4 0-6-2s-3-3-3-6h3l1 2 3-1 1-4z" fill="#9d9c90"/><path d="M124 273h7l1 1 4 1 2 1h2l-8 1-5 3-1 2-2-1 1-3-1-5z" fill="#999684"/><path d="M207 250h27l4 1v7h-5l1-2h2v-5h-29v-1z" fill="#a2aaa6"/><path d="M189 237h2l1 4h-2l1 2v3l-1 1 2 2h-2v3l2 1-1 4h-2l-1-12v-4l1-4z" fill="#f7f7eb"/><path d="m133 201 2 4-1 3 1 4-2 1-3-1-4 1-1-2 1-1 2-2 1-2 4-5z" fill="#fbfade"/><path d="m263 360 3 1-1 6-7 1-2-4 5-1v-2l2-1z" fill="#7d776d"/><path d="M241 346h37l-1 2h-19v3h-3l1-4h-15v-1z" fill="#61615d"/><path d="M310 317c3 3 3 3 3 6l-3 3-7-10c3-1 4-1 7 1z" fill="#7c796e"/><path d="m186 300 5 3 2 7-2-1-5 1v-2l-2-3 2-5z" fill="#c3c1ae"/><path d="m330 258 12 3-4 2-1 3-9-3 2-1v-4z" fill="#c5c0a8"/><path d="M156 235c5 2 5 2 6 4h-2v2l-3 7-3 1v2l-4 1 2-6 3-1 1-3h3l-2-4h-2l1-3z" fill="#d4d2b7"/><path d="M122 196h2c2 11 2 11-1 15l2 1h-2v2h-2v-4l-2 1 2-7 1-8z" fill="#ebeacc"/><path d="M355 172h2v7l-1 2h-2l-1 3-4-7 1-2h4l1-3z" fill="#dedfd1"/><path d="m282 146 3 1c-2 10-2 10-5 13l-2-1c0-5 2-9 4-13z" fill="#e6e9df"/><path d="m250 245 5 1h3l4 5h-13l1-6z" fill="#eeedd3"/><path d="M289 234h1l-1 9 4 1v-2l3-1 1 5-9-2-1 3-4 6 1-3 3-10 1-3 1-3z" fill="#bfc0b5"/><path d="M318 236h5l2 1h7l1 2h-23l-1-2 9-1z" fill="#f5f4e1"/><path d="m125 212 4 1v2l2 1-2 6-1-1c-4-3-8-3-12-3v-1h9v-5z" fill="#d8d9c3"/><path d="m292 210 4 2 1 6-5-1v-2h-2l1 6h-2l-2-7h2l2-1 1-3z" fill="#f9f9e6"/><path d="M160 175h2v2l-1 6-3 4v2h-5c1-5 4-10 7-14z" fill="#dfe2d7"/><path d="M207 368h10l1 3 1-2 4-1v4h-10c-4-1-7-1-10-3l4-1z" fill="#4b4b47"/><path d="m142 320 2 1 5 1 3 3-1 4v-2h-3c-4 0-5-2-8-5l2-2z" fill="#24262a"/><path d="m313 289 4 3 2 1 5 5v2l-10-4-2-3h2l-1-4z" fill="#c7c2af"/><path d="M249 274h6l-1 2h-2l-1 3c-4 2-8 2-12 2l2-1v-2h-2l1-2 2 1v2h3l1-4 1 2 2-3z" fill="#eae7ce"/><path d="m309 139 4 1 1 4-5 5-1-2-3-3 4-5z" fill="#d3d6cd"/><path d="m183 338 4 2v2h4l2 5h-7v-2l-1-2-3-1 1-4z" fill="#292d31"/><path d="m208 338 3 1h3v2h5v2l2 1-1 3-2-3-3 1-3-1-2 1-2-7z" fill="#7c7a73"/><path d="m159 258-1 6-9-1 1-4 9-1z" fill="#d7d4bb"/><path d="m206 251 2 2c2 2 2 2 5 2v2l-3 1 17 1v1h-21v-9z" fill="#d2d4c6"/><path d="M192 246h6c0 4-1 4-3 7l-2 2-1 2v-2l-3-8 3-1z" fill="#e3e2d2"/><path d="m219 325 5 2v4l4 1h-3l-3 1-1 2-1-2-3-3v-3h2v-2z" fill="#aba799"/><path d="M346 309v2h-2l-1 2-5 6v-7c3-4 4-4 8-3z" fill="#9f9b8a"/><path d="m326 216-3 1-1 2 2 2h-11l-1-4h3l3-1h8z" fill="#b7b9b2"/><path d="M305 213h6l1 7h-6l-1-7z" fill="#f0f1df"/><path d="M292 146h1c0 6 0 9-3 14l-1-3-3 1c1-5 3-8 6-12z" fill="#d2d6cc"/><path d="m243 311 2 4 1 2 1 12-3-1-1-17z" fill="#8f8b7c"/><path d="m276 283 5 1-1 7-5 1 1 6-3-1-2-6h7v-7l-2-1z" fill="#c6c6b8"/><path d="M173 281c-2 5-2 5-5 6l-7-1 3-5h9z" fill="#b5b4a2"/><path d="m169 257 3 8-6 1v2l-4 1v-3h3l-3-4h4v2h3l-3-4 3-1v-2z" fill="#d3d0b7"/><path d="m106 237 5 4v3l2 1 1 3-4 1h-2v-2l-2-2 1-3-1-5z" fill="#d6d5c0"/><path d="m249 227 1 3 5 1v4l4 1c-7 0-7 0-10-2l-2-2 2-5z" fill="#e6e7dc"/><path d="m152 189 1 10 2 1-3 2v2l-5 1 1-5 1-3 3-8z" fill="#d8dcd0"/><path d="M329 182v5l-5 1-1-3-7 1c2-3 2-3 5-4h8z" fill="#d0d2bd"/><path d="m286 171 1 3 2 1-4 4-2 1c-2 2-4 2-7 2l2-1 1-2 5-5 2-3z" fill="#d9ded4"/><path d="M108 152v9l-2 1-7 8-1-2 10-16z" fill="#888982"/><path d="m166 131 5 1 1 5-3 1-4-1v-5l1-1z" fill="#e0e5e1"/><path d="m186 323 3 1v2l3 1h-6v3h-2l-1 2-4-2 3-6h3l1-1z" fill="#65655f"/><path d="M247 300v3l-3 1v16l-2 1v-16l1-4h-6v-1h10z" fill="#42423a"/><path d="M337 248c6 0 10 0 16 2l-1 4v-3h-10l1 3-9-1h6v-4l-3-1z" fill="#8f9189"/><path d="M292 163h2c0 4 0 6-2 9-2 2-2 2-5 2 0-5 2-7 5-11z" fill="#d8dfd6"/><path d="M241 146h3v3l2 5h-2v5h-3v-13z" fill="#d9d8ba"/><path d="m301 342 4 2 1 4h-2l-2 1-1 3h-2l-1-8 3-2z" fill="#a29e90"/><path d="m197 315 4 1 1 2 3 2 1 4-5 1-4-5h2v-4l-2-1z" fill="#8e8d80"/><path d="m124 295 5 3v3l4 1h-5l-1 3c-3-1-3-2-4-5v-2l-1-2 2-1z" fill="#797a6f"/><path d="m182 293 1 2 2 1-1 1 2 1v2l-2 2-1 2h-2v-3l-3 1-1-2 2-2 3-5z" fill="#b4b29c"/><path d="m152 131 4 1-3 5-7 2-5 2c3-4 5-6 9-8l2-2z" fill="#d8ddd2"/><path d="M234 294h1l2 6 6 1v2l-7-1v17h-1l-1-25z" fill="#131716"/><path d="m295 299 4 3v2h2l1 4-2 1c-3-1-4-2-6-5l-1-2-1-1h3v-2z" fill="#a19e94"/><path d="M128 302h8v5l-3-1-2 5-3-9z" fill="#6b6962"/><path d="m169 293 6 1-1 3 1 8-1-2-3-1v-3l-3-1v-2l-2-1 3-1v-1z" fill="#76756d"/><path d="m101 239 6 1 1 4-3 2-2-1v2h-2l-1-7 1-1z" fill="#e7e4cc"/><path d="m272 237 3 1-1 2-2-1v-2zm6-1h2c-1 7-1 7-4 9l-2 1v-3l-4 1 1-4 7 1v-5z" fill="#d1d1c0"/><path d="M215 93h8v6h-7l-1-6z" fill="#fcfdef"/><path d="m269 359-1 3 1 4-4 1v-6h-4v2l-7-1v-1l6-2h9z" fill="#5b584e"/><path d="m143 336 1 2 4 1v2h-2l2 5h-3l-1-4h-4l3-6z" fill="#8d8f87"/><path d="M107 262h3l1 3 1 4 3 1-1 1 2 2h-4l-2-3-2 2v-2l-2-1 1-1v-6z" fill="#bdbcad"/><path d="m215 223 2 1 1 6 1 3v2h-7l2-4h-6v-1l8-1-1-6z" fill="#73756b"/><path d="M128 195h2v2l2 1 3 1 1 3-2 3-1-3-2 2v-2l-4-1h2l-1-6z" fill="#d7d6c0"/><path d="m253 363 4 2 1 3 3 1-12 1 4-7z" fill="#67645b"/><path d="m297 329 4 1-1 4c-4 3-5 4-10 4l1-2h2l1-4h2l1-3z" fill="#6a655f"/><path d="m196 311 1 3-1 1-2 4-5-1 1-5 6-2z" fill="#909083"/><path d="m236 302 3 1h-2v20h5v2l-5 1-1-3v-21z" fill="#797972"/><path d="m253 295 3 1v7l-2-2-1 18h-1v-19l1-5z" fill="#74756c"/><path d="M93 280h5v2l4-1 1 4-4 1-4-4 2 3-1 4-3-9z" fill="#cbcab9"/><path d="m122 162-2 8-1 3-1 2-3 1-1 3h-2c1-4 3-7 6-11l1-3 3-3z" fill="#bec4b9"/><path d="M154 111v2c-4 4-9 7-15 8v-2a102 102 0 0 1 6-4l2-1 7-3z" fill="#909187"/><path d="m188 363 2 1v2l6 1 1-4 3 1 1 3 2 2-7-1h-2c-6-1-6-1-8-3h2v-2z" fill="#4b4b45"/><path d="m304 340 1 2h2l3 5-9 5c1-4 1-4 4-6l-3-5 2-1z" fill="#848070"/><path d="M320 328h3l1 6h-2v2l-8-1v-2l6-1v-4z" fill="#aaa498"/><path d="m107 296 3 1-2 8h-2l-1-3h-2l-1-4h5v-2z" fill="#d1cfb9"/><path d="m363 263 2 2-1 7-1-2-5-1 1-4 4-2z" fill="#f0ecd1"/><path d="M157 251h6l-1 5h2l1 4-4 1v-3l-3-3h3v-2h-5l1-2z" fill="#dbd8bb"/><path d="m223 345 7 3-1 4h-5l-4-4 3-3z" fill="#393738"/><path d="m315 336-1 2-3 1c-2 3-2 4-2 7l-2-4h-2c0-3 0-3 2-5l8-1z" fill="#a9a597"/><path d="m315 307 6 3v2h2v2h-2l-1 2-7-7 2-2z" fill="#868478"/><path d="M350 297h3c-1 5-3 8-6 12h-1l1-11 2 1v2h2l-1-4z" fill="#a29d8b"/><path d="m182 290 1 2h2l4 4-1 5-2-1v-2l-4-1 2-1-2-3v-3z" fill="#d6d5be"/><path d="M166 272c3 1 3 3 4 6l-5 3-2-1c1-6 1-6 3-8z" fill="#c9c7b5"/><path d="M312 245h6l4 1 6 2-16 1v-4z" fill="#e8eadb"/><path d="m204 227 2 1c2 2 5 3 8 3l-2 4h-5l-3-8z" fill="#e2e1ca"/><path d="m137 121 2 1-5 6-1 2-6 1 10-10z" fill="#a2a799"/><path d="m250 120-6 3-3 1-5 1v-2l-3-1 7-2h10z" fill="#c2c5bd"/><path d="m235 366 2 4h9v1l-14 2 1-6 2-1z" fill="#666761"/><path d="m235 347 6 2v2h2l-2 4v-2h-5l-1-6z" fill="#504e4b"/><path d="m241 336 10 3v2l-14-1 4-2v-2z" fill="#86877f"/><path d="M150 316h2v4l2 2c-5 1-8 1-12-1h-2v-2l9 1 1-4z" fill="#535355"/><path d="m265 296 4 3 1 2v2l1 2-3 3-1-2v-3l-1-3-3-3 2-1z" fill="#b9b5a8"/><path d="M276 296c3 3 3 5 4 9l-3-1-1 2-3-9 3 1v-2z" fill="#9b9a91"/><path d="M236 273h1l1 8 9-1v2l2 1h-13v-10z" fill="#73756b"/><path d="M368 220h2v8h-6l4-8z" fill="#f7f8e1"/><path d="M305 182c-1 4-2 5-5 8l-2 2-1 1-1-4 3-4 2-2 4-1z" fill="#eaecdf"/><path d="m277 157 3 1-1 8-2 1-3-2 3-8z" fill="#ccd1c6"/><path d="m280 357 3 1v2l2 1-10 3v-3h2l1-3 2-1z" fill="#636056"/><path d="m172 356 2 1c2 2 4 3 7 3l2-2 1 5-5-1h-3l-5-2 1-4z" fill="#67675f"/><path d="m159 323 1 4-8 1-2-4 9-1z" fill="#464748"/><path d="m161 312 4 2-6 10-4-1v-3h5l1-8z" fill="#6a6960"/><path d="M205 284h6v5l-5 1-1-4v-2z" fill="#bbbfc0"/><path d="M119 280h4l-2 6 2 1-1 2-4-1v-2l-5 1v-3l6 1v-5z" fill="#7e7c6d"/><path d="m164 123 2 1-1 2h7v1h-3l-7 3-4-3 6-4z" fill="#c8ccc9"/><path d="m263 321 1 2 1-2h2v8l-1 2h-2l-1-10z" fill="#b6b2a3"/><path d="M158 302v5l2 1-3 1v-2h-6v-4c4-2 4-2 7-1z" fill="#919184"/><path d="m324 287 5 3 2 1 2 2v2h2v2l-12-7 1-3z" fill="#767775"/><path d="M85 237h5v8l-1-2-2 1-1 4-1-3v-6l2 1 1-2-3-1z" fill="#f9fbe9"/><path d="m292 181 1 8-6-1-1-2 6-5z" fill="#f5f7ee"/><path d="m115 306 3 2v2h2l1 4-6 3 1-3-1-8z" fill="#9a9586"/><path d="m345 296 5 1 1 4h-2l-1-2-2 5-3-2 2-6z" fill="#d1ccbb"/><path d="m155 295 2 1v4l-8 1 1-4 5-2z" fill="#a1a191"/><path d="m342 282 1 2h-2v2l-3 4-2 1 1-5-3-1 1-2 2 1 5-2z" fill="#a4a497"/><path d="m352 281 1 3 4 1 2 1-2 5-1-2h-2v-3h-3l1-5z" fill="#c5c3ad"/><path d="M314 273h4v2l6 2-3 1v2c-3-1-5-1-7-4l2-1-2-2z" fill="#9d9e92"/><path d="m131 266 8 1v3l3 1-2 1-5-2-2 4v-7l-2-1z" fill="#e0dac3"/><path d="m161 245 2 2-1 3 5-1-1 5-4 2 1-5h-4v-2h2v-4z" fill="#f2f0d0"/><path d="m315 210-1 1 3 2h-2l-3 1-1 2v-3h-6l-1 3v-4l4-2h7z" fill="#babdb4"/><path d="M308 190c3 1 3 3 4 5l-6 2-1-2h-3l6-5z" fill="#dfe1d5"/><path d="m124 177 4 4v2h-2l-1 5-3-3 2-8z" fill="#e7e6cb"/><path d="M207 167h5l1 5h-6v-5z" fill="#d8dcda"/><path d="m321 163 2 1a85 85 0 0 1-13 13l-2-1 13-13z" fill="#bbc0b7"/><path d="m170 160 1 4-6 7-1 3-3-1 3-4 1-3 5-6z" fill="#d1d6ce"/><path d="m110 154 1 2 2 1-1 6-5-4v-4l3-1z" fill="#f6f7e5"/><path d="m280 288 3 3-2 2v2l-1 2-3 1-2-6h2l2-1 1-3z" fill="#161616"/><path d="M287 275v3l-1 1 2 1c3 2 3 2 4 5v2l-8-6 3-6z" fill="#a2a397"/><path d="M156 275h3l1 2 2-2 1 4-3 5-3-3v-2l-1-2v-2z" fill="#c4c4b3"/><path d="m280 270 1 3-4 1v2h-3l-1 3-6 1 1-2h3v-2h2l1-2 2-2h4v-2z" fill="#4e4f49"/><path d="M118 267h3v2l2 1 1 3c-3 3-5 3-9 4v-2l6-1-1-2-3-1 3-1v-2l-2-1z" fill="#8f8c78"/><path d="M246 152h1v10h-5l2-8h2v-2z" fill="#fafded"/><path d="M272 121h10l-3 3-2 4v-2l-6-1 2-2-1-2z" fill="#c6c8b8"/><path d="M279 122h5l-2 6-5 2 2-8z" fill="#f1f5e5"/><path d="m269 358 4 2-2 6-3-1-1-6 2-1z" fill="#8f8b81"/><path d="M241 336v2l2 1h-11v-3h9z" fill="#abaa9e"/><path d="m275 329 3 5 3 1 1-2v6h-5l-2-10z" fill="#6e6d69"/><path d="M329 323h3l1 4-6 5v-2l-2-2 4-1-1-2 1-2z" fill="#787369"/><path d="M208 318c3 1 6 2 8 5l-5 2-2 2-1-4h2l-2-5z" fill="#babbad"/><path d="m289 314 5 2 1-2 2 6-1 2-3-3-2-1-2-2v-2z" fill="#a9a597"/><path d="m133 239 5 1v5l-4 2-1-8z" fill="#f3f1d3"/><path d="m199 213 2 1c-3 4-5 7-9 9 0-3 0-3 2-5l2-2 1-2 2-1z" fill="#8a8e87"/><path d="M242 139h2v7h-3v5h-1v-8l2-4z" fill="#f5f6d0"/><path d="M312 333h2v2h3c3 0 3 0 5 2l-6 4-1-5h-4l1-3z" fill="#78756c"/><path d="m118 314 5 1 1 4-2 2v-2h-4l-2-3h2v-2z" fill="#bfbdaa"/><path d="M266 289v4l-8-2-1 2v-3c3-2 5-2 9-1z" fill="#a6a69b"/><path d="m93 276 8 2v4h-3v-2h-5v-4z" fill="#e5e3cf"/><path d="m288 275 4 1v4h-5l-2-1 3-4z" fill="#f2f1dd"/><path d="m356 271 3 4-1 6-4-1 2-9z" fill="#d0cfbd"/><path d="M264 245h4v2h-2v4c-5-1-5-1-7-3h2l2-1 1-2z" fill="#e6e4ca"/><path d="M289 231h10l-1 3h-9v-3z" fill="#262726"/><path d="M349 209h3v7h-4l-1-4 2-3z" fill="#f3f5ef"/><path d="m297 141 1 4-4 7h-1v-8l4-3z" fill="#e6ebe4"/><path d="M246 111h10v3h-9l-1-3z" fill="#fdfdf6"/><path d="M293 350c-3 3-4 3-8 3v4l-4-2c3-3 7-7 12-5z" fill="#a19f93"/><path d="M292 309c2 3 2 3 2 7l-4-1-2-5 4-1z" fill="#bebbb2"/><path d="M183 300h3l-1 2v2l2 2h-2l-1 3-6-3 1-2h4v-4z" fill="#a09e8b"/><path d="m150 295 2 1-2 2v6l-3 1v-9l3-1z" fill="#8a8a7d"/><path d="m328 280 9 6-1 3-3-2v-2l-4-1v-2l-2-1 1-1z" fill="#cbc5b2"/><path d="m109 259 3 4 3-1v7h-3l-3-10z" fill="#929081"/><path d="m136 253 3 2v11l-4-1 1-2 2 1-1-2-1-2v-7z" fill="#eae7cd"/><path d="M92 249h1l2 16h-2v-2h-3v-2l2-1v-11z" fill="#bfbeb2"/><path d="M314 255h8v2h2v2h-7l-3-4z" fill="#e9ead6"/><path d="m108 252 4 1v2l5 2h-6v2h-2l-1 2 2-6-2-1v-2z" fill="#dcdac5"/><path d="m219 239 1 3h-10l1-3h8z" fill="#f4f1d4"/><path d="m149 226 4 1v6l3 1-3 1-2 4v-5l-1-3-1-5z" fill="#dbd8b9"/><path d="M140 205c1 5 0 8-1 12h-2l-1-6 3-3 1-3z" fill="#d0d1bf"/><path d="m239 138 2 1-1 13h-2v-9l1-5z" fill="#fbfce1"/><path d="M163 337h5l3 1 5 1-2 4-1-3h-7v-2l-3-1z" fill="#14181d"/><path d="M275 325h2l4 10-4-1c-2-3-2-5-2-9z" fill="#b4b2a2"/><path d="M105 300h1v5h2l1-4h1v7h-4l-2-6 1-2z" fill="#aeac99"/><path d="m176 299 2 1 3 1v4l2 1-2-1-6 1 1-7z" fill="#807f6d"/><path d="M161 298c4 3 6 5 7 10l-4-1c-2-3-3-5-3-9z" fill="#8d8d83"/><path d="M221 252h2v2l2 1v2l-4 1h-3l-4-1 1-2 5-1 1-2z" fill="#e3e0c9"/><path d="m112 219 2 1-3 2c-4 4-4 8-4 13v2h-1c-1-11-1-11 1-14l4-3 1-1z" fill="#32322d"/><path d="M91 183c2 4 1 8 0 12h-2v2h-2l1-5 1-3 2-6z" fill="#979a8c"/><path d="m131 149 1 2c-2 5-4 7-8 9 1-5 4-7 7-11z" fill="#bfc3bb"/><path d="M244 140c2 2 2 3 3 7v4l-3 2v-13z" fill="#fafde0"/><path d="M247 127v8h-1l-1-5-1 2-5 1c1-3 2-4 4-5l4-1z" fill="#d1d5cc"/><path d="m132 313 3 2c3 2 5 2 9 2v2l-6 1-6-5v-2z" fill="#25262a"/><path d="M237 292h8v3h-7l-1 3v-6z" fill="#f1f1dd"/><path d="m252 277 3 1v2l3-1 1 2h-11l4-4z" fill="#b0ac99"/><path d="M305 247v2l3 3 2 1v2h-6l1-8z" fill="#cfd2be"/><path d="m150 237 4 3v5h-3l-1-3h-2l2-5z" fill="#e6e4c7"/><path d="m268 214 3 1 2 5h-2l-1 3-4-7h2v-2z" fill="#e1e3d5"/><path d="m148 176 2 5-1 2-4-1 1-5 2-1z" fill="#f0f1e4"/><path d="M266 317c3 3 3 4 3 8l1 3v3h-4l1-4-1-10z" fill="#888579"/><path d="M195 314v6l4 1-1 3-6-3 3-7z" fill="#6e7069"/><path d="m132 307 3 2-1 1h3v3h-2l-1 2-3-2 1-6z" fill="#424443"/><path d="M93 266h2l-1 7-3 1-1-6 3 1v-3z" fill="#f4f4df"/><path d="M135 257c3 4 3 4 3 7l-5 1-1-4h2l1-4z" fill="#cecab0"/><path d="m285 251 1 5h2v2l-7 2c2-7 2-7 4-9z" fill="#ededdd"/><path d="M298 241v7l-1 2h-4v-3l4-1 1-5z" fill="#dbd9c2"/><path d="M270 237h2v2l2 1-3 1-1 3-5-1 2-1 2-4 1-1z" fill="#f5f6e9"/><path d="M295 224h4v6l-5-1 1-5z" fill="#f8f9e6"/><path d="M296 212c2 4 3 7 3 12h-3l-1-5h2l-1-7z" fill="#d7d5c4"/><path d="M139 141h2c0 4-3 6-6 9l-3-1 3-4 2-2 2-2z" fill="#dce0d3"/><path d="M292 125h2l5 6-8-2-1 3-1-2 3-5z" fill="#c6cac0"/><path d="m263 360 3 1-1 6-3-1-1-5 2-1z" fill="#999388"/><path d="M111 306h4v3l2 1-2 6h-2l1-8h-3v-2z" fill="#d8d4bf"/><path d="M123 273c3 6 3 6 2 10h-2l-1 4-2-1 1-2 2-7v-4z" fill="#c6c3b0"/><path d="M272 271h1v5h-2v2h-4l-1-6 1 2 4 1 1-4z" fill="#9a9787"/><path d="M258 257h11l-1 3-5 2 1-4h-6v-1z" fill="#8c8c84"/><path d="M332 249h8v4l-8-2v-2z" fill="#f6f6e2"/><path d="M132 223h2v2h3l-1 7-2 1v-3c0-3 0-4-2-7z" fill="#f6f7df"/><path d="m108 187 2 2c0 4-2 6-5 8 1-4 1-7 3-10z" fill="#ccd1c2"/><path d="M251 362h7v2l-5-1-2 4-4-2 3-1 1-2z" fill="#99968d"/><path d="m233 348 2 6 4 1-9-1v-2h2l1-4z" fill="#434544"/><path d="M160 310h1v8l-5 1-1-2 2-1c2-2 3-3 3-6z" fill="#7b7970"/><path d="m169 289 2 4-2 4v-2h-3v-3l-2-2 5-1z" fill="#a3a394"/><path d="M271 287h7v4h-7v-4z" fill="#f3eed9"/><path d="M150 280c3 2 4 5 5 8l-2-1-4-1-1-2-2-1 3-1 1-2z" fill="#9c9a8a"/><path d="m90 272 5 1 1 3h-3l-1 4c-2-3-2-4-2-8z" fill="#c7c9ba"/><path d="m172 265 3 7-7-1 1-4 3-2z" fill="#cdccb7"/><path d="m306 260 8 4-5 2-3-3v-3z" fill="#9e9f94"/><path d="m361 255 4 2-2 5-3 1 1-8z" fill="#f6f4dd"/><path d="m312 157-1 8-1 2-1 2-2-3-2-1 7-8z" fill="#bdc1b9"/><path d="m260 157 3 2-1 9-3-1 1-10z" fill="#cbd2c7"/><path d="M270 155h1l-1 8-3 1 1-7 2-2z" fill="#f0f3ea"/><path d="m141 334 2 1a57 57 0 0 1-4 7l-2-3c1-3 1-3 4-5z" fill="#6d6e64"/><path d="M143 313h3l2 6h-4v-2l-4-1h3v-3z" fill="#4e4e4d"/><path d="m158 308 2 1-1 2 1 4h-2l-1-2h-5l6-5z" fill="#62615b"/><path d="m307 301 2 1h6l2 3-7 1-1-3h-2v-2z" fill="#8a857c"/><path d="m316 297 8 3 1-2 3 4-9-1v-2l-3-1v-1z" fill="#a4a092"/><path d="m153 287 2 1v2l-1 1c-2 2-2 2-2 5l-3-3v-4h4v-2z" fill="#cccbb4"/><path d="M106 270h2v2l3 1 1 4h-3c-3-4-3-4-3-7z" fill="#90928b"/><path d="M310 264h7l1 2-5 2-2-1-1-3z" fill="#cbcbbd"/><path d="m335 260 7 1-2 1-3 4-4-2h2v-4z" fill="#acab98"/><path d="m244 257 1 4h-9l3-1v-2l5-1z" fill="#d1d2c0"/><path d="M282 253h1v6h-2l-6 4 7-10z" fill="#6c6f68"/><path d="m148 252 8 3-1 2h-5l-1-2-2 2 1-5z" fill="#d3d2bd"/><path d="m348 252 4 1v4l-5-1 1-4z" fill="#d8d8c6"/><path d="M124 245h3v3h2l1 3h-6v-6z" fill="#eae6cb"/><path d="m181 338 1 2 3 3v2h-6l2-7z" fill="#131518"/><path d="m144 336 6 3-1 6-3-1v-3h2v-2l-4-1v-2z" fill="#606059"/><path d="m186 323 3 1v2l3 1h-6v3l-2-2 2-5z" fill="#52524d"/><path d="m309 319 4 2-1 4-3 1-1-6 1-1z" fill="#989489"/><path d="m142 320 4 2v4l-5-2-1-3 2-1z" fill="#37393e"/><path d="m175 294 2 4-3-1v2h2v6c-2-2-3-4-3-7l2-4z" fill="#a2a092"/><path d="m300 293 5 1 1 2-1 2-5-2v-3z" fill="#cac1ad"/><path d="M162 283h7l1 3h-9l1-3z" fill="#c2c2b0"/><path d="m245 275 2 2-1 4h-7l2-1v-2h-2l1-2 2 1v2h3v-4z" fill="#cdcbb1"/><path d="m244 240-1 5-5-1 1-3 5-1z" fill="#f2f3d9"/><path d="M105 229h1v8h-4v-5h2l1-3z" fill="#d0ceb1"/><path d="m184 357 5 1-3 1v5h-2l-1-6 1-1z" fill="#78776e"/><path d="m176 355 7 1-2 1v2l-5-1v-3z" fill="#77746a"/><path d="M163 348c3 1 6 2 8 5l-2 1-6-3v-3z" fill="#797972"/><path d="m138 332 3 1-1 3h-2v3h-2l2-7z" fill="#aeaea3"/><path d="m216 329 5 3v3l-7-2 2-4z" fill="#6c6b61"/><path d="m159 330 7 2v2h-3v-2h-2v2l-4-1 2-3z" fill="#4c5153"/><path d="m216 326 1 6h-6l2-5 3 1v-2z" fill="#8a887c"/><path d="m138 308 2 7h-5v-2h2l-1-4 2-1z" fill="#353635"/><path d="m298 289 5 4h-3l-1 2-3-4h2v-2z" fill="#b8af9d"/><path d="m276 283 5 1-1 7-4 1 2-1v-7l-2-1z" fill="#94968e"/><path d="m172 273 2 1-2 3-4-1-1-3h5z" fill="#dddcc3"/><path d="M304 266v2l1 2 2 1h-2v3c-5-2-5-2-6-4h4l1-4z" fill="#a0998c"/><path d="m284 259 3 2 3 1-2 1-3 3-3-3v-2h2v-2z" fill="#b0af9c"/><path d="M103 255h5l-1 4-3 2-1-6z" fill="#c8c9b7"/><path d="M167 245v4h-2l-1 2-2-1 1-4 4-1z" fill="#e8e5c7"/><path d="m288 244 6 1-2 1-1 4v-2h-4l1-4z" fill="#f1f1df"/><path d="M190 223h1c0 4 0 6-2 9l-2 2c0-4 1-7 3-11z" fill="#7a7c78"/><path d="m364 195 2 5-5 1-1-3 4-3z" fill="#f0f0d7"/><path d="m282 164 2 1-1 5-3 2 2-8z" fill="#cbd1cf"/><path d="M209 365h6l-1 4-4-1v2l-2-1 1-4z" fill="#979388"/><path d="m199 362 6 1-2 5-3-1-1-5z" fill="#85847a"/><path d="m266 359-1 2h-4v2l-7-1v-1l4-1 2-1h6z" fill="#686761"/><path d="M248 347h2v2l3 1c-3 2-5 2-9 2l4-5z" fill="#9a9587"/><path d="m152 341 5 4h-2l-1 3-4-1h3l-3-5 2-1z" fill="#67665f"/><path d="M215 341h4v2l2 1-1 3-2-3-3 1-1-3 1-1z" fill="#8b8783"/><path d="M161 332h2v2h2v3l-3 1-1-3-2-1h2v-2z" fill="#24292b"/><path d="M122 325h5l1 3h-2l-1 2-3-3v-2z" fill="#8b8d7d"/><path d="M285 314v6l-2 1-2-6 4-1z" fill="#aba69c"/><path d="m156 315 2 1-1 2 3 2h-7v-4l3-1z" fill="#4f4d47"/><path d="m188 303 4 2 1 5-4-1-1-6z" fill="#a3a28e"/><path d="M254 299c2 3 2 6 2 10l-3-2 1-8z" fill="#c5c5b1"/><path d="m300 281 6 2 1 2h-6l-1-4z" fill="#e1dfcb"/><path d="M289 273h4v2h3v2l-3 1-5-4 1-1z" fill="#cfcebd"/><path d="M286 258h5v3h-4l-1 2-1-3 1-2z" fill="#cfccb5"/><path d="M236 251h2v7h-5l1-2h2v-5z" fill="#bbbaab"/><path d="m106 246 3 1-1 2 5 1-1 2-7-1 1-5z" fill="#e8e5cf"/><path d="M208 230h8v5l-4-1 2-3h-6v-1z" fill="#aaaa9a"/><path d="m320 208 1 2-1 2h-7c2-3 2-3 5-4h2z" fill="#f2f4e2"/><path d="m315 200-1 4-8-1c3-3 5-5 9-3z" fill="#c3c5bb"/><path d="m345 198 4 1v4h-4l-1-4 1-1z" fill="#f9f9ec"/><path d="m282 176 2 4c-3 2-4 2-8 2l2-1 1-2 3-3z" fill="#b4b6ae"/><path d="M124 162h6l-5 5-2-1 1-4z" fill="#e3e5d2"/><path d="M269 152h3l1 3-2 3-1-2-3 3 2-7z" fill="#ced3cc"/><path d="m208 345 3 1-2 4-6 1 3-1 2-5z" fill="#303231"/><path d="m156 346 1 2 2 1v4h-3l-2-2 2-5z" fill="#696a61"/><path d="m202 336 3 2v2l-7 2 4-6z" fill="#474849"/><path d="m143 336 1 2 4 1-1 2-2-1h-3l-2 2 3-6z" fill="#aeada3"/><path d="m243 322 4 1v6l-3-1-1-6z" fill="#7c776d"/><path d="m243 325 4 5-4-1h-3l-2-1-1-2 6-1z" fill="#514e49"/><path d="m317 284 5 1 2 4c-4-1-5-2-7-5z" fill="#999891"/><path d="m312 276 9 5-4 1-5-5v-1z" fill="#23211e"/><path d="m134 269 4 2v4h-4v-6z" fill="#b9b59d"/><path d="m357 267 2 2 4 1v5h-2v-3l-4-2v-3z" fill="#dcd8c1"/><path d="m130 266 3 1v5l-6-1v-2h3v-3z" fill="#d0cab1"/><path d="m316 266 6 2-1 2-6-1 1-3z" fill="#e1e1ce"/><path d="m152 258 3 1-1 3-5 1 1-4 2-1z" fill="#cbcbb4"/><path d="m87 256 6 1-1 4-2-1h-3v-4z" fill="#f8f8e7"/><path d="m305 346 3 1c-2 3-4 4-7 5l1-4 3-2z" fill="#5b5950"/><path d="m298 346 2 4-2 3-3-2 2-4 1-1z" fill="#7d7769"/><path d="m132 331 5 2-1 6-1-2-2-1 1-3h-2v-2z" fill="#787567"/><path d="m319 327 2 1v6l-5-3 3-4z" fill="#7d796f"/><path d="m204 313 5 5-1 3c-3-2-4-4-4-8z" fill="#999b8e"/><path d="M295 303h3v2l4 2-2 2-3-1-2-5z" fill="#d4cebf"/><path d="m253 295 3 1v7l-3-2v-6z" fill="#7b7c74"/><path d="m237 274 2 4h2v2l-4 2v-8z" fill="#e1e0cf"/><path d="M260 271c3 1 6 2 8 5l-4 1-4-6z" fill="#cfcbb6"/><path d="m301 258 3 1-2 4-4 1 3-6z" fill="#cacdc4"/><path d="m124 252 1 1 6 4h-7v-5z" fill="#cdc8b1"/><path d="m167 249 2 6-1 2v-2l-4 1-1-2 3-1 1-4z" fill="#d7d5bb"/><path d="m340 249 3 3v2l-9-1h6v-4z" fill="#b7b8ab"/><path d="M160 239c3 4 2 6 1 10l-2-1 1-9z" fill="#e9e6c3"/><path d="m130 237-2 7h-3v-3l5-4z" fill="#9a9b91"/><path d="M100 237h6l1 3h-7v-3z" fill="#efeed5"/><path d="M262 224h1l-1 10-2 1v-2l-3-1 5-1v-7z" fill="#d3d5cd"/><path d="M160 175h2l-1 5-4 2 3-7z" fill="#e3e8df"/><path d="M97 170v8h-3l3-8z" fill="#81837f"/><path d="m122 162-2 8-2 1c1-4 1-6 4-9z" fill="#cfd3c8"/><path d="m299 137 2 1-2 5h-3c0-3 0-3 2-5l1-1z" fill="#dce0dd"/><path d="m137 121 2 1-3 5-3-1 4-5z" fill="#93948c"/></svg>